#N canvas 178 13 1143 780 10;
#X obj 217 15 inlet;
#X obj 240 212 symbol;
#X obj 25 209 float;
#X obj 280 13 loadbang;
#X obj 309 689 outlet saved_value;
#X msg 25 370 \$1 \$2 \$3;
#X msg 240 370 \$1 \$2 \$3 \$4;
#X obj 25 345 pack f s f;
#X obj 240 343 pack f s s s;
#X obj 445 86 r vt_save_composition_now;
#X obj 25 236 t b f;
#X obj 240 238 t b s;
#X obj 126 231 symbol;
#X msg 126 208 module;
#X obj 25 289 f \$1;
#X obj 166 288 f \$2;
#X obj 25 263 t b b;
#X obj 240 291 f \$1;
#X obj 381 290 f \$2;
#X obj 240 265 t b b;
#X text 19 -32 This storage abstraction is designed for VisualTracker
modules;
#X obj 280 38 symbol \$4;
#X obj 441 294 f \$1;
#X obj 582 293 f \$2;
#X obj 441 268 t b b;
#X msg 460 245 end_of_module_storage_list;
#X text 508 262 adding end of storage list identifier;
#X obj 280 63 select number symbol end;
#X obj 487 294 l2s;
#X text 421 128 decides whether value is number \, symbol or end;
#X obj 288 483 r vt_load_values_now;
#X obj 441 198 float;
#X obj 441 223 t b b f;
#X obj 441 345 pack f s s f;
#X msg 441 373 \$1 \$2 \$3 \$4;
#X obj 217 128 demux 0 1 2 3;
#X obj 334 130 demux 0 1 2 3;
#X msg 280 87 1;
#X msg 338 86 2;
#X msg 397 87 3;
#X text 964 706 built in Pd 0.42.5-extended;
#X obj 297 509 r vt_load_local_values_now;
#X obj 297 532 route \$1;
#X text 878 719 more info: code.google.com/p/visualtracker;
#X obj 288 562 demux 0 1 2 3;
#X obj 275 648 + \$5;
#X obj 371 648 symbol \$3;
#X obj 52 167 - \$5;
#X text 85 167 init value;
#X text 205 648 init value;
#X text 377 611 decides whether creation argument is present (0=init
symbol);
#X text 560 543 6th argument is initial symbol \, active only if switch="symbol"
;
#X text 538 373 This abstraction must have 6 creation arguments:;
#X text 561 393 1st argument is module ID (\$0);
#X text 561 438 3rd argument is actual stored value/symbol loaded as
corresponding argument of main module (\$1 \, \$2 etc);
#X text 560 467 4th argument is switch (number/symbol/end) of desired
storage object (it is needed because pd handles numbers and symbols
differently);
#X text 560 509 5th argument is initial number \, active only if switch="number".
If switch="symbol" this parameter must be 0;
#X text 561 414 2nd argument is unique preset number within current
module;
#X obj 240 413 s vt_sendtocoll;
#X obj 338 613 sel 0;
#X obj 338 588 l \$3;
#X obj 309 648 symbol \$6;
#X obj 275 624 l \$3;
#X obj 25 313 expr ($f1-1000)*1000+$f2;
#X obj 240 315 expr ($f1-1000)*1000+$f2;
#X obj 441 318 expr ($f1-1000)*1000+$f2;
#X obj 946 261 change;
#X obj 925 283 gate;
#X obj 805 239 gate;
#X obj 805 262 change;
#X obj 925 64 inlet on-off;
#X obj 946 236 receive13;
#X obj 805 284 send13;
#X obj 775 38 r \$1-MODULE_FILENAME;
#X obj 775 140 mergefilename _;
#X obj 775 114 pack s f;
#X text 1009 59 0 > autonomous;
#X text 1009 70 1 > grouped;
#X text 770 315 Use this inlet to group connected number box with other
module instances - when group is ON \, value is changed in all module
instances.;
#X text 772 -10 GROUPING WORKS ONLY WITH FLOATS - NO SYMBOLS ALLOWED!
;
#X msg 775 167 set \$1;
#X obj 820 87 f \$2;
#X obj 775 63 t a b;
#X msg 873 239;
#X connect 0 0 35 0;
#X connect 0 0 68 1;
#X connect 1 0 11 0;
#X connect 2 0 10 0;
#X connect 3 0 13 0;
#X connect 3 0 21 0;
#X connect 5 0 58 0;
#X connect 6 0 58 0;
#X connect 7 0 5 0;
#X connect 8 0 6 0;
#X connect 9 0 36 0;
#X connect 10 0 16 0;
#X connect 10 1 7 2;
#X connect 11 0 19 0;
#X connect 11 1 8 3;
#X connect 12 0 7 1;
#X connect 12 0 8 1;
#X connect 12 0 33 1;
#X connect 13 0 12 0;
#X connect 14 0 63 0;
#X connect 15 0 63 1;
#X connect 16 0 14 0;
#X connect 16 1 15 0;
#X connect 17 0 64 0;
#X connect 18 0 64 1;
#X connect 19 0 17 0;
#X connect 19 1 18 0;
#X connect 21 0 27 0;
#X connect 22 0 65 0;
#X connect 23 0 65 1;
#X connect 24 0 22 0;
#X connect 24 1 23 0;
#X connect 25 0 28 0;
#X connect 27 0 37 0;
#X connect 27 1 38 0;
#X connect 27 2 39 0;
#X connect 28 0 33 2;
#X connect 30 0 44 0;
#X connect 31 0 32 0;
#X connect 32 0 24 0;
#X connect 32 1 25 0;
#X connect 32 2 33 3;
#X connect 33 0 34 0;
#X connect 34 0 58 0;
#X connect 35 1 47 0;
#X connect 35 2 1 1;
#X connect 35 3 31 1;
#X connect 36 1 2 0;
#X connect 36 2 1 0;
#X connect 36 3 31 0;
#X connect 37 0 35 1;
#X connect 37 0 36 1;
#X connect 37 0 44 1;
#X connect 38 0 35 1;
#X connect 38 0 36 1;
#X connect 38 0 44 1;
#X connect 39 0 35 1;
#X connect 39 0 36 1;
#X connect 39 0 44 1;
#X connect 41 0 42 0;
#X connect 42 0 44 0;
#X connect 44 1 62 0;
#X connect 44 2 60 0;
#X connect 45 0 4 0;
#X connect 46 0 4 0;
#X connect 47 0 2 1;
#X connect 59 0 61 0;
#X connect 59 1 46 0;
#X connect 60 0 59 0;
#X connect 61 0 4 0;
#X connect 62 0 45 0;
#X connect 63 0 7 0;
#X connect 64 0 8 0;
#X connect 65 0 33 0;
#X connect 66 0 67 1;
#X connect 67 0 4 0;
#X connect 68 0 69 0;
#X connect 69 0 72 0;
#X connect 70 0 68 0;
#X connect 70 0 67 0;
#X connect 71 0 66 0;
#X connect 73 0 82 0;
#X connect 74 0 80 0;
#X connect 75 0 74 0;
#X connect 80 0 72 0;
#X connect 80 0 71 0;
#X connect 80 0 83 0;
#X connect 81 0 75 1;
#X connect 82 0 75 0;
#X connect 82 1 81 0;
#X coords 0 0 1 1 85 60 0;
