#N canvas 445 228 518 520 10;
#X obj 8 36 inlet;
#X obj 240 207 symbol;
#X obj 25 209 float;
#X obj 52 150 demux 0 1;
#X msg 117 108 0;
#X msg 175 107 1;
#X obj 117 34 loadbang;
#X obj 117 84 select number symbol;
#X obj 189 152 demux 0 1;
#X obj 8 421 outlet saved_value;
#X text 257 152 decides whether value is number or symbol;
#X text 282 482 comments: contactcaucasian//gmail.com;
#X msg 25 316 \$1 \$2 \$3;
#X msg 240 314 \$1 \$2 \$3 \$4;
#X obj 25 289 pack f s f;
#X obj 240 287 pack f s s s;
#X obj 269 85 r vt_save_composition_now;
#X obj 25 236 t b f;
#X obj 240 233 t b s;
#X obj 136 235 symbol \$1;
#X obj 117 59 symbol \$3;
#X obj 25 261 f \$2;
#X obj 240 259 f \$2;
#X text 21 450 1st parameter is identifier;
#X text 21 465 2nd parameter is preset number;
#X text 21 481 3rd parameter is number/symbol switch;
#X obj 123 389 r global\$2;
#X text 190 389 2nd parameter is preset number;
#X text 340 465 built in Pd 0.42.5-extended;
#X obj 123 359 s vt_sendtocoll;
#X connect 0 0 3 0;
#X connect 1 0 18 0;
#X connect 2 0 17 0;
#X connect 3 0 2 1;
#X connect 3 1 1 1;
#X connect 4 0 3 1;
#X connect 4 0 8 1;
#X connect 5 0 3 1;
#X connect 5 0 8 1;
#X connect 6 0 20 0;
#X connect 6 0 19 0;
#X connect 7 0 4 0;
#X connect 7 1 5 0;
#X connect 8 0 2 0;
#X connect 8 1 1 0;
#X connect 12 0 29 0;
#X connect 13 0 29 0;
#X connect 14 0 12 0;
#X connect 15 0 13 0;
#X connect 16 0 8 0;
#X connect 17 0 21 0;
#X connect 17 1 14 2;
#X connect 18 0 22 0;
#X connect 18 1 15 3;
#X connect 19 0 14 1;
#X connect 19 0 15 1;
#X connect 20 0 7 0;
#X connect 21 0 14 0;
#X connect 22 0 15 0;
#X connect 26 0 9 0;
#X coords 0 0 1 1 85 60 0;
