#N struct audio-clip-template float x float y float w float h float
c symbol label;
#N canvas 543 96 865 736 10;
#N canvas 533 430 738 467 \$0-audio-clip-template 0;
#X obj 67 385 filledpolygon -x c c 1 0 0 w 0 w h 0 h 0 0;
#X obj 84 306 drawsymbol label 2 5 0;
#X obj 60 21 struct audio-clip-template float x float y float w float
h float c symbol label;
#X restore 8 14 pd \$0-audio-clip-template;
#N canvas 112 49 1184 665 \$0-draw 0;
#X scalar audio-clip-template 0 0 23.3333 30 777 line(1) \;;
#X coords 0 0 3999 1199 4000 1200 2 0 0;
#X restore -2 300 pd \$0-draw;
#N canvas 421 38 891 826 \$0-behavior 1;
#X msg 573 353 bang;
#X obj 503 323 loadbang;
#X text 607 353 click here to re-initialize;
#X obj 238 504 append audio-clip-template x y w h c;
#N canvas 541 22 1000 916 \$0-mouse-control 0;
#N canvas 346 362 952 480 \$0-pointers 0;
#X obj 281 74 inlet;
#X text 279 52 pointers;
#X obj 291 156 list;
#X obj 330 156 t l;
#X obj 141 73 inlet;
#X text 138 56 bang to iterate;
#X obj 147 185 list;
#N canvas 711 430 626 420 \$0-list-serializer 0;
#X obj 168 155 until;
#X obj 168 193 list append;
#X obj 194 122 t b l;
#X obj 307 163 bang;
#X obj 162 70 inlet;
#X obj 170 319 outlet;
#X obj 168 238 list split 2;
#X connect 0 0 1 0;
#X connect 1 0 6 0;
#X connect 2 0 0 0;
#X connect 2 1 1 1;
#X connect 3 0 0 1;
#X connect 4 0 2 0;
#X connect 6 0 5 0;
#X connect 6 1 1 1;
#X connect 6 2 3 0;
#X restore 147 221 pd \$0-list-serializer;
#X obj 147 263 outlet;
#X obj 377 75 inlet;
#X text 375 53 bang to reset;
#X text 360 157 storing (ID \, pointer) pairs;
#X text 287 215 split the list into (ID \, pointer) pairs;
#X text 286 230 and output each one sequentially;
#X connect 0 0 2 0;
#X connect 2 0 3 0;
#X connect 2 0 6 1;
#X connect 3 0 2 1;
#X connect 4 0 6 0;
#X connect 6 0 7 0;
#X connect 7 0 8 0;
#X connect 9 0 2 1;
#X restore 178 207 pd \$0-pointers;
#X text 254 91 mouseup 199 558 1;
#X text 255 76 mouse 199 558 1 0;
#X text 256 59 motion 199 558 0;
#X obj 565 205 unpack f f f f;
#X obj 218 386 spigot;
#X obj 178 157 t b l;
#X obj 218 260 t p p;
#X obj 218 412 t p b;
#X msg 157 445 1;
#X msg 127 445 0;
#X obj 127 493 tgl 15 0 empty empty empty 17 7 0 10 -262144 -1 -1 1
1;
#X obj 76 512 spigot;
#X obj 443 32 inlet;
#X obj 573 31 inlet;
#X text 432 12 pointers;
#X text 520 12 bang to reset pointers list;
#X text 100 241 mouseup;
#X text 184 129 mouse;
#X obj 76 88 route motion mouseup mouse;
#X text 35 141 motion;
#X obj 308 538 -;
#X obj 455 541 -;
#X text 566 184 mouse coordinates;
#X obj 284 675 +;
#X obj 410 677 +;
#X floatatom 284 700 5 0 0 0 - - -;
#X floatatom 410 700 5 0 0 0 - - -;
#X text 132 507 dragging;
#X text 134 520 mode;
#X text 260 407 multiple pointers can pass through here;
#X text 260 420 but only the last one's gonna matter;
#X obj 183 563 unpack f f f;
#N canvas 376 242 780 572 \$0-mouseX-within-the-container 0;
#X obj 112 44 inlet;
#X obj 112 336 outlet;
#X obj 229 41 inlet;
#X text 226 20 deltaX;
#X obj 346 41 inlet;
#X text 343 20 w;
#X text 83 23 mouse X coordinate;
#X text 85 358 corrected mouse X coordinate will be output here;
#X obj 112 208 expr if($i1 + $i2 < 0 \, -$i2 \, if($i1 + $i2 + $i3
>= $f4 \, $f4 - $i2 - $i3 \, $i1));
#X text 461 34 container width;
#X obj 463 54 inlet;
#X connect 0 0 8 0;
#X connect 2 0 8 1;
#X connect 4 0 8 2;
#X connect 8 0 1 0;
#X connect 10 0 8 3;
#X restore 86 644 pd \$0-mouseX-within-the-container;
#N canvas 376 242 780 572 \$0-mouseY-within-the-container 0;
#X obj 112 44 inlet;
#X obj 112 336 outlet;
#X obj 229 41 inlet;
#X obj 346 41 inlet;
#X text 52 23 mouse Y coordinate;
#X text 85 358 corrected mouse Y coordinate will be output here;
#X text 343 20 h;
#X text 226 20 deltaY;
#X obj 112 208 expr if($i1 + $i2 < 0 \, -$i2 \, if($i1 + $i2 + $i3
>= $f4 \, $f4 - $i2 - $i3 \, $i1));
#X text 457 20 container height;
#X obj 463 44 inlet;
#X connect 0 0 8 0;
#X connect 2 0 8 1;
#X connect 3 0 8 2;
#X connect 8 0 1 0;
#X connect 10 0 8 3;
#X restore 444 648 pd \$0-mouseY-within-the-container;
#X obj 131 755 set audio-clip-template x;
#X obj 410 755 set audio-clip-template y;
#X obj 303 503 get audio-clip-template x y w h;
#X obj 76 62 iemguts/receivecanvas 3;
#X obj 871 537 t a;
#X obj 928 550 t a;
#X text 334 536 deltaX;
#X text 413 555 deltaY;
#X obj 348 646 t a;
#X obj 348 698 t a;
#X obj 565 507 t a;
#X obj 592 512 t a;
#X obj 177 233 unpack f p;
#N canvas 61 351 680 472 \$0-mouse-over-object 0;
#X text 207 195 mousex >= x && mousex < x + w;
#X text 189 206 && mousey >= y && mousey < y + h;
#X obj 132 164 expr if($i5 >= $i1 && $i5 < $i1 + $i3 && $i6 >= $i2
&& $i6 < $i2 + $i4 \, 1 \, 0);
#X obj 132 129 get audio-clip-template x y w h;
#X obj 132 50 inlet;
#X text 68 28 pointer that identifies the object;
#X obj 408 55 inlet;
#X obj 477 54 inlet;
#X text 406 33 mouseX;
#X text 474 32 mouseY;
#X obj 132 271 outlet;
#X text 186 270 whether mouse is over the object;
#X connect 2 0 10 0;
#X connect 3 0 2 0;
#X connect 3 1 2 1;
#X connect 3 2 2 2;
#X connect 3 3 2 3;
#X connect 4 0 3 0;
#X connect 6 0 2 4;
#X connect 7 0 2 5;
#X restore 245 315 pd \$0-mouse-over-object;
#X obj 177 366 spigot;
#X obj 320 794 pack f f f;
#X obj 320 816 outlet dragged object position and ID;
#X obj 871 130 unpack f f;
#X obj 871 29 inlet;
#X text 817 9 container width and length;
#X connect 0 0 47 0;
#X connect 4 0 45 0;
#X connect 4 0 48 1;
#X connect 4 1 46 0;
#X connect 4 1 48 2;
#X connect 5 0 8 0;
#X connect 6 0 0 0;
#X connect 6 1 4 0;
#X connect 7 0 5 0;
#X connect 7 1 48 0;
#X connect 8 0 37 0;
#X connect 8 0 43 0;
#X connect 8 1 9 0;
#X connect 9 0 11 0;
#X connect 10 0 11 0;
#X connect 11 0 12 1;
#X connect 12 0 32 0;
#X connect 13 0 0 1;
#X connect 14 0 0 2;
#X connect 19 0 12 0;
#X connect 19 1 10 0;
#X connect 19 2 6 0;
#X connect 21 0 24 1;
#X connect 21 0 33 1;
#X connect 22 0 25 1;
#X connect 22 0 34 1;
#X connect 24 0 26 0;
#X connect 25 0 27 0;
#X connect 26 0 35 0;
#X connect 26 0 50 0;
#X connect 27 0 36 0;
#X connect 27 0 50 1;
#X connect 32 0 33 0;
#X connect 32 1 34 0;
#X connect 33 0 24 0;
#X connect 34 0 25 0;
#X connect 37 0 21 0;
#X connect 37 1 22 0;
#X connect 37 2 33 2;
#X connect 37 3 34 2;
#X connect 38 0 19 0;
#X connect 39 0 33 3;
#X connect 40 0 34 3;
#X connect 43 0 44 0;
#X connect 44 0 35 1;
#X connect 44 0 36 1;
#X connect 45 0 21 1;
#X connect 46 0 22 1;
#X connect 47 0 49 0;
#X connect 47 1 7 0;
#X connect 48 0 5 1;
#X connect 48 0 49 1;
#X connect 49 0 50 2;
#X connect 50 0 51 0;
#X connect 52 0 39 0;
#X connect 52 1 40 0;
#X connect 53 0 52 0;
#X restore 272 616 pd \$0-mouse-control;
#X obj 115 19 inlet;
#N canvas 385 90 1102 694 \$0-pointers-list 0;
#X obj 545 148 list;
#X obj 584 148 t l;
#X text 148 66 comment;
#X obj 342 146 list;
#X obj 381 146 t f;
#X obj 125 188 list;
#X obj 43 408 list split 1;
#X obj 43 325 until;
#X obj 43 363 list append;
#X obj 69 292 t b l;
#X obj 182 333 bang;
#X obj 395 588 outlet;
#X obj 131 470 ==;
#X obj 108 521 spigot;
#X obj 570 234 list;
#X obj 552 324 list split 1;
#X obj 546 279 list append;
#X obj 474 49 unpack f p;
#X obj 475 23 inlet list(ID \, pointer);
#X obj 401 524 spigot;
#X obj 87 137 t b f b;
#X obj 63 444 t b b f;
#X obj 653 29 inlet bang to reset lists;
#X text 411 141 storing the IDs;
#X text 410 151 in a list;
#X text 610 142 storing the pointers;
#X text 609 153 in a list;
#X obj 43 23 inlet float ID to search;
#X connect 0 0 1 0;
#X connect 0 0 14 1;
#X connect 1 0 0 1;
#X connect 3 0 4 0;
#X connect 3 0 5 1;
#X connect 4 0 3 1;
#X connect 5 0 9 0;
#X connect 6 0 21 0;
#X connect 6 1 8 1;
#X connect 6 2 10 0;
#X connect 7 0 8 0;
#X connect 8 0 6 0;
#X connect 9 0 7 0;
#X connect 9 1 8 1;
#X connect 10 0 7 1;
#X connect 12 0 13 1;
#X connect 12 0 19 1;
#X connect 13 0 7 1;
#X connect 14 0 16 1;
#X connect 15 0 19 0;
#X connect 15 1 16 1;
#X connect 16 0 15 0;
#X connect 17 0 3 0;
#X connect 17 1 0 0;
#X connect 18 0 17 0;
#X connect 19 0 11 0;
#X connect 20 0 5 0;
#X connect 20 1 12 1;
#X connect 20 2 14 0;
#X connect 21 0 16 0;
#X connect 21 1 13 0;
#X connect 21 2 12 0;
#X connect 22 0 0 1;
#X connect 22 0 3 1;
#X connect 27 0 20 0;
#X restore 330 426 pd \$0-pointers-list;
#X obj 115 264 pack f p;
#X obj 115 163 t f b;
#X obj 357 741 s;
#X text 397 617 <- All work is done here;
#X obj 330 294 t a;
#X obj 272 645 unpack f f f;
#X msg 372 702 symbol \$1-module-input;
#X obj 272 673 pack f f;
#X msg 272 702 position \$1 \$2;
#N canvas 792 297 774 565 \$0-setcolor 0;
#X obj 77 20 inlet;
#X obj 412 18 inlet;
#X obj 152 105 select 16 14 17 19 15 13 18 1 23 26 29 24;
#X obj 265 355 set audio-clip-template c;
#X msg 172 278 951;
#X msg 192 247 299;
#X msg 152 303 192;
#X msg 212 222 519;
#X msg 233 245 992;
#X msg 253 215 911;
#X msg 273 241 19;
#X msg 314 290 311;
#X msg 334 237 121;
#X msg 354 280 203;
#X msg 374 302 321;
#X msg 293 264 777;
#X obj 77 71 unpack f f;
#X obj 134 386 outlet;
#X connect 0 0 16 0;
#X connect 1 0 3 1;
#X connect 2 0 6 0;
#X connect 2 1 4 0;
#X connect 2 2 5 0;
#X connect 2 3 7 0;
#X connect 2 4 8 0;
#X connect 2 5 9 0;
#X connect 2 6 10 0;
#X connect 2 7 15 0;
#X connect 2 8 11 0;
#X connect 2 9 12 0;
#X connect 2 10 13 0;
#X connect 2 11 14 0;
#X connect 4 0 3 0;
#X connect 5 0 3 0;
#X connect 6 0 3 0;
#X connect 7 0 3 0;
#X connect 8 0 3 0;
#X connect 9 0 3 0;
#X connect 10 0 3 0;
#X connect 11 0 3 0;
#X connect 12 0 3 0;
#X connect 13 0 3 0;
#X connect 14 0 3 0;
#X connect 15 0 3 0;
#X connect 16 0 2 0;
#X connect 16 1 17 0;
#X restore 207 162 pd \$0-setcolor;
#N canvas 134 424 614 421 \$0-setduration 0;
#X obj 279 60 inlet;
#X obj 426 60 inlet;
#X obj 279 247 set audio-clip-template w;
#X obj 279 159 unpack f f;
#X obj 132 251 outlet;
#X connect 0 0 3 0;
#X connect 1 0 2 1;
#X connect 3 0 2 0;
#X connect 3 1 4 0;
#X restore 304 208 pd \$0-setduration;
#N canvas 146 186 683 524 \$0-setposition 0;
#X text 225 163 set_position ID x y;
#X obj 172 346 set audio-clip-template x y;
#X obj 217 185 unpack f f f;
#X obj 439 398 outlet;
#X obj 217 51 inlet;
#X obj 452 51 inlet;
#X connect 2 0 1 0;
#X connect 2 1 1 1;
#X connect 2 2 3 0;
#X connect 4 0 2 0;
#X connect 5 0 1 2;
#X restore 433 209 pd \$0-setposition;
#N canvas 118 423 589 407 \$0-setname 0;
#X obj 120 58 inlet;
#X obj 441 56 inlet;
#X obj 122 111 unpack s f;
#X obj 179 297 outlet;
#X obj 222 225 set -symbol audio-clip-template label;
#X text 115 35 name \, ID;
#X text 187 316 ID;
#X text 439 35 pointer;
#X text 234 299 this outlet is connected to the pointers list;
#X text 234 315 send the module ID there and you'll get a pointer;
#X text 232 331 sent to the right inlet;
#X connect 0 0 2 0;
#X connect 1 0 4 1;
#X connect 2 0 4 0;
#X connect 2 1 3 0;
#X restore 172 229 pd \$0-setname;
#X obj 38 443 t a;
#X obj 38 103 t a;
#X obj 346 120 t a;
#X obj 115 52 route create_module rename color set_duration set_position
delete_modules;
#X obj 699 258 t a;
#N canvas 65 165 717 608 \$0-initialize 0;
#X obj 271 337 pointer;
#X obj 271 176 t b b;
#X obj 318 196 f \$0;
#X obj 271 277 f \$0;
#X msg 271 315 traverse pd-\$1-draw \, bang;
#X msg 318 216 \; pd-\$1-draw clear;
#X text 485 425 container dimensions;
#X obj 344 381 t b;
#X obj 271 89 inlet;
#X obj 185 507 outlet;
#X obj 271 506 outlet;
#X obj 415 505 outlet;
#X msg 415 428 4000 1200;
#X obj 344 506 outlet;
#X connect 0 0 7 0;
#X connect 0 0 10 0;
#X connect 1 0 3 0;
#X connect 1 0 9 0;
#X connect 1 1 2 0;
#X connect 2 0 5 0;
#X connect 3 0 4 0;
#X connect 4 0 0 0;
#X connect 7 0 12 0;
#X connect 7 0 13 0;
#X connect 8 0 1 0;
#X connect 12 0 11 0;
#X restore 573 389 pd \$0-initialize;
#X msg 238 467 0 0 70 30 666;
#X connect 0 0 25 0;
#X connect 1 0 0 0;
#X connect 3 0 7 1;
#X connect 4 0 12 0;
#X connect 5 0 23 0;
#X connect 6 0 20 0;
#X connect 7 0 6 1;
#X connect 7 0 4 0;
#X connect 8 0 7 0;
#X connect 8 1 26 0;
#X connect 11 0 6 0;
#X connect 12 0 14 0;
#X connect 12 1 14 1;
#X connect 12 2 13 0;
#X connect 13 0 9 1;
#X connect 14 0 15 0;
#X connect 15 0 9 0;
#X connect 16 0 11 0;
#X connect 17 0 11 0;
#X connect 18 0 11 0;
#X connect 19 0 11 0;
#X connect 20 0 21 0;
#X connect 21 0 22 0;
#X connect 22 0 19 1;
#X connect 22 0 16 1;
#X connect 22 0 17 1;
#X connect 22 0 18 1;
#X connect 23 0 8 0;
#X connect 23 1 19 0;
#X connect 23 2 16 0;
#X connect 23 3 17 0;
#X connect 23 4 18 0;
#X connect 23 5 24 0;
#X connect 24 0 0 0;
#X connect 25 0 6 2;
#X connect 25 1 3 5;
#X connect 25 2 4 1;
#X connect 25 3 4 2;
#X connect 26 0 3 0;
#X restore 8 76 pd \$0-behavior;
#X obj 8 45 r \$1-timeline;
#X connect 3 0 2 0;
#X coords 0 0 3999 1199 4000 1200 2 -2 300;
