#N canvas 36 150 1338 475 10;
#X obj 101 104 cnv 20 35 24 empty \$0-send_tracknumber 1 2 13 1 14
-262144 -66577 0;
#X obj -85 207 makefilename %d;
#X obj -85 334 f \$0;
#X obj -85 357 pack f s;
#X msg -85 392 \; \$1-send_tracknumber label \$2;
#X obj -85 311 t b s;
#X obj 130 104 cnv 22 82 22 empty \$0-track_name TRACK 2 12 1 10 -233017
-1 0;
#X obj 211 104 cnv 22 33 22 empty empty empty 2 12 0 10 -262144 -66577
0;
#X obj 214 101 cnv 10 1 1 empty empty OUTPUT 0 6 1 6 -262144 -1 0;
#X obj -662 309 f \$0;
#X obj -707 52 r vt_track_name;
#X obj -707 333 pack s f;
#X msg -707 367 \; \$2-track_name label \$1;
#N canvas 233 214 476 208 route 0;
#X obj -332 105 mux 0 1 2 3 4 5 6 7 8 9 10 11 12 13 14 15 16 17 18
19 20 21 22 23 24 25 26 27 28 29 30 31 32 33 34 35;
#X obj -332 67 route 1 2 3 4 5 6 7 8 9 10 11 12 13 14 15 16 17 18 19
20 21 22 23 24 25 26 27 28 29 30 31 32 33 34 35 36;
#X obj 19 25 - 1;
#X obj 19 -7 inlet tracknumber;
#X obj -332 149 outlet value;
#X text -139 150 message without index is sent to all tracks;
#X obj -332 -2 inlet message list;
#X connect 0 0 4 0;
#X connect 1 0 0 0;
#X connect 1 1 0 1;
#X connect 1 2 0 2;
#X connect 1 3 0 3;
#X connect 1 4 0 4;
#X connect 1 5 0 5;
#X connect 1 6 0 6;
#X connect 1 7 0 7;
#X connect 1 8 0 8;
#X connect 1 9 0 9;
#X connect 1 10 0 10;
#X connect 1 11 0 11;
#X connect 1 12 0 12;
#X connect 1 13 0 13;
#X connect 1 14 0 14;
#X connect 1 15 0 15;
#X connect 1 16 0 16;
#X connect 1 17 0 17;
#X connect 1 18 0 18;
#X connect 1 19 0 19;
#X connect 1 20 0 20;
#X connect 1 21 0 21;
#X connect 1 22 0 22;
#X connect 1 23 0 23;
#X connect 1 24 0 24;
#X connect 1 25 0 25;
#X connect 1 26 0 26;
#X connect 1 27 0 27;
#X connect 1 28 0 28;
#X connect 1 29 0 29;
#X connect 1 30 0 30;
#X connect 1 31 0 31;
#X connect 1 32 0 32;
#X connect 1 33 0 33;
#X connect 1 34 0 34;
#X connect 1 35 0 35;
#X connect 1 36 4 0;
#X connect 2 0 0 36;
#X connect 3 0 2 0;
#X connect 6 0 1 0;
#X restore -707 120 pd route;
#X text -709 34 list (index name);
#X obj -420 309 f \$0;
#N canvas 255 194 476 208 route 0;
#X obj -332 105 mux 0 1 2 3 4 5 6 7 8 9 10 11 12 13 14 15 16 17 18
19 20 21 22 23 24 25 26 27 28 29 30 31 32 33 34 35;
#X obj -332 67 route 1 2 3 4 5 6 7 8 9 10 11 12 13 14 15 16 17 18 19
20 21 22 23 24 25 26 27 28 29 30 31 32 33 34 35 36;
#X obj 19 25 - 1;
#X obj 19 -7 inlet tracknumber;
#X obj -332 175 outlet value;
#X text -139 150 message without index is sent to all tracks;
#X obj -332 -2 inlet message list;
#X msg -276 146 0;
#X connect 0 0 4 0;
#X connect 1 0 0 0;
#X connect 1 1 0 1;
#X connect 1 2 0 2;
#X connect 1 3 0 3;
#X connect 1 4 0 4;
#X connect 1 5 0 5;
#X connect 1 6 0 6;
#X connect 1 7 0 7;
#X connect 1 8 0 8;
#X connect 1 9 0 9;
#X connect 1 10 0 10;
#X connect 1 11 0 11;
#X connect 1 12 0 12;
#X connect 1 13 0 13;
#X connect 1 14 0 14;
#X connect 1 15 0 15;
#X connect 1 16 0 16;
#X connect 1 17 0 17;
#X connect 1 18 0 18;
#X connect 1 19 0 19;
#X connect 1 20 0 20;
#X connect 1 21 0 21;
#X connect 1 22 0 22;
#X connect 1 23 0 23;
#X connect 1 24 0 24;
#X connect 1 25 0 25;
#X connect 1 26 0 26;
#X connect 1 27 0 27;
#X connect 1 28 0 28;
#X connect 1 29 0 29;
#X connect 1 30 0 30;
#X connect 1 31 0 31;
#X connect 1 32 0 32;
#X connect 1 33 0 33;
#X connect 1 34 0 34;
#X connect 1 35 0 35;
#X connect 1 36 7 0;
#X connect 2 0 0 36;
#X connect 3 0 2 0;
#X connect 6 0 1 0;
#X connect 7 0 4 0;
#X restore -465 119 pd route;
#X text -474 33 list (index integer);
#X obj -465 52 r vt_track_color;
#X obj -465 288 t f b;
#X obj -465 334 pack f f;
#X msg -465 367 \; \$2-track_name color \$1 22;
#X obj 166 341 pack f f;
#X obj 166 365 s vt_track_output;
#X obj 420 104 s \$0-send_track_output;
#X msg 420 75 0;
#X obj 216 143 div;
#X obj 420 48 r vt_track_output_reset;
#X obj 285 365 s vt_track_trigger;
#X obj 285 344 bang;
#N canvas 255 194 476 208 route 0;
#X obj -332 105 mux 0 1 2 3 4 5 6 7 8 9 10 11 12 13 14 15 16 17 18
19 20 21 22 23 24 25 26 27 28 29 30 31 32 33 34 35;
#X obj -332 67 route 1 2 3 4 5 6 7 8 9 10 11 12 13 14 15 16 17 18 19
20 21 22 23 24 25 26 27 28 29 30 31 32 33 34 35 36;
#X obj 19 25 - 1;
#X obj 19 -7 inlet tracknumber;
#X obj -332 175 outlet value;
#X text -139 150 message without index is sent to all tracks;
#X obj -332 -2 inlet message list;
#X msg -276 146 0;
#X connect 0 0 4 0;
#X connect 1 0 0 0;
#X connect 1 1 0 1;
#X connect 1 2 0 2;
#X connect 1 3 0 3;
#X connect 1 4 0 4;
#X connect 1 5 0 5;
#X connect 1 6 0 6;
#X connect 1 7 0 7;
#X connect 1 8 0 8;
#X connect 1 9 0 9;
#X connect 1 10 0 10;
#X connect 1 11 0 11;
#X connect 1 12 0 12;
#X connect 1 13 0 13;
#X connect 1 14 0 14;
#X connect 1 15 0 15;
#X connect 1 16 0 16;
#X connect 1 17 0 17;
#X connect 1 18 0 18;
#X connect 1 19 0 19;
#X connect 1 20 0 20;
#X connect 1 21 0 21;
#X connect 1 22 0 22;
#X connect 1 23 0 23;
#X connect 1 24 0 24;
#X connect 1 25 0 25;
#X connect 1 26 0 26;
#X connect 1 27 0 27;
#X connect 1 28 0 28;
#X connect 1 29 0 29;
#X connect 1 30 0 30;
#X connect 1 31 0 31;
#X connect 1 32 0 32;
#X connect 1 33 0 33;
#X connect 1 34 0 34;
#X connect 1 35 0 35;
#X connect 1 36 7 0;
#X connect 2 0 0 36;
#X connect 3 0 2 0;
#X connect 6 0 1 0;
#X connect 7 0 4 0;
#X restore -250 99 pd route;
#X text -248 35 list (index integer);
#X obj -250 52 r vt_track_setoutput;
#X text -556 255 store name;
#X obj -707 228 l2s;
#X obj -707 288 t s b;
#X text -313 175 store color preset;
#X text -173 103 store output;
#X obj -85 53 inlet;
#X obj -427 175 storage global \$2 number;
#X symbolatom -707 256 10 0 0 0 - - -;
#X floatatom -465 175 5 0 0 0 - - -;
#X obj 256 168 storage global \$3 number;
#X obj -639 256 storage global \$1 symbol;
#X floatatom 216 168 5 0 0 0 - - -;
#X obj 247 112 hsl 8 13 0 1 0 0 rzjkrwezkwerzkerzk \$0-send_track_mute
M 1 7 0 10 -262144 -262144 -1 0 0;
#N canvas 385 134 339 337 mute_mngmnt 0;
#X obj 35 10 inlet mute toggle;
#X obj 35 32 bang;
#X obj 35 74 tgl 15 0 empty empty empty 17 7 0 10 -262144 -1 -1 0 1
;
#X obj 67 181 f \$0;
#X obj 67 156 t b f;
#X obj 51 102 sel 1;
#X msg 51 131 13;
#X obj 67 206 pack f f;
#X msg 67 240 \; \$1-send_track_mute color \$2 \$2 22;
#X msg 82 131 0;
#X obj 35 281 outlet mute toggle;
#X obj 158 11 inlet reset mute;
#X msg 158 35 0;
#X obj 80 73 storage global \$4 number;
#X connect 0 0 1 0;
#X connect 1 0 2 0;
#X connect 2 0 5 0;
#X connect 2 0 10 0;
#X connect 2 0 13 0;
#X connect 3 0 7 0;
#X connect 4 0 3 0;
#X connect 4 1 7 1;
#X connect 5 0 6 0;
#X connect 5 1 9 0;
#X connect 6 0 4 0;
#X connect 7 0 8 0;
#X connect 9 0 4 0;
#X connect 11 0 12 0;
#X connect 12 0 2 0;
#X connect 13 0 2 0;
#X restore 326 205 pd mute_mngmnt;
#N canvas 96 94 320 243 output_mngmnt 0;
#X obj 15 10 inlet output toggle;
#X obj 15 88 f \$0;
#X obj 15 63 t b f;
#X obj 15 113 pack f f;
#X msg 15 147 \; \$1-send_track_output color \$2 22 22;
#X obj 15 37 tabread colortable;
#X connect 0 0 5 0;
#X connect 1 0 3 0;
#X connect 2 0 1 0;
#X connect 2 1 3 1;
#X connect 3 0 4 0;
#X connect 5 0 2 0;
#X restore 216 205 pd output_mngmnt;
#X obj 353 282 float;
#X obj 326 234 sel 1;
#X msg 326 282 0;
#X obj 353 256 bang;
#X text 371 441 More info code.google.com/p/visualtracker;
#X obj 214 112 nbx 2 13 0 12 0 0 wedgfasgawrg \$0-send_track_output
empty 0 -8 0 10 -233017 -1 -1 0 256;
#X obj -465 218 tabread colortable;
#X connect 1 0 5 0;
#X connect 2 0 3 0;
#X connect 3 0 4 0;
#X connect 5 0 2 0;
#X connect 5 1 3 1;
#X connect 9 0 11 1;
#X connect 10 0 13 0;
#X connect 11 0 12 0;
#X connect 13 0 34 0;
#X connect 15 0 20 1;
#X connect 16 0 41 0;
#X connect 18 0 16 0;
#X connect 19 0 20 0;
#X connect 19 1 15 0;
#X connect 20 0 21 0;
#X connect 22 0 23 0;
#X connect 25 0 24 0;
#X connect 26 0 44 0;
#X connect 27 0 25 0;
#X connect 29 0 28 0;
#X connect 30 0 53 0;
#X connect 32 0 30 0;
#X connect 34 0 40 0;
#X connect 35 0 11 0;
#X connect 35 1 9 0;
#X connect 38 0 1 0;
#X connect 38 0 13 1;
#X connect 38 0 16 1;
#X connect 38 0 22 1;
#X connect 38 0 30 1;
#X connect 39 0 41 0;
#X connect 40 0 35 0;
#X connect 40 0 43 0;
#X connect 41 0 39 0;
#X connect 41 0 54 0;
#X connect 42 0 53 0;
#X connect 43 0 40 0;
#X connect 44 0 22 0;
#X connect 44 0 42 0;
#X connect 44 0 47 0;
#X connect 44 0 48 1;
#X connect 45 0 46 0;
#X connect 46 0 49 0;
#X connect 48 0 22 0;
#X connect 48 0 29 0;
#X connect 49 0 50 0;
#X connect 49 1 51 0;
#X connect 50 0 22 0;
#X connect 50 0 29 0;
#X connect 51 0 48 0;
#X connect 53 0 26 0;
#X connect 53 0 29 0;
#X connect 53 0 46 1;
#X connect 54 0 19 0;
#X coords 0 -1 1 1 160 30 2 100 100;
