#N canvas 43 92 851 642 10;
#N canvas 159 81 1061 624 canvas_appearance 0;
#X obj 823 304 * 8;
#X obj 823 335 pack f f;
#X obj 823 189 /;
#X obj 298 58 inlet rename canvas;
#X obj 516 56 inlet reset pos;
#X obj 156 57 inlet color;
#X obj 624 56 inlet reset size;
#X obj 423 57 inlet moduleID;
#X obj 298 125 t b s;
#X obj 298 173 pack s s;
#X obj 298 150 symbol;
#X obj 423 81 makefilename (%d);
#X msg 298 196 \$2 \$1;
#X obj 298 220 mergefilename;
#X obj 868 304 f \$1;
#X obj 516 246 f \$1;
#X obj 528 175 r vt_reset_sample_position;
#X obj 823 56 inlet duration;
#X obj 17 56 inlet creationbang;
#X obj 838 157 r vt_bartime;
#X msg 17 403 create_module \$1;
#X obj 17 371 f \$1;
#X msg 627 392 set_size \$1;
#X obj 343 271 f \$1;
#X obj 298 298 pack s f;
#X obj 298 246 t s b;
#X obj 201 229 f \$1;
#X obj 156 259 pack f f;
#X msg 156 328 color \$1 \$2;
#X obj 156 203 t f b;
#X msg 298 330 rename \$1 \$2;
#X obj 823 269 t f b;
#X msg 823 411 set_duration \$1 \$2;
#X text 756 296 bar width;
#X text 758 308 in pixels;
#X text 861 390 duration \, ID;
#X text 325 349 name \, ID;
#X msg 516 314 set_position 0 -90 \$1;
#X obj 823 478 loadbang;
#X obj 218 540 s;
#X msg 823 523 symbol \$1-timeline;
#X obj 823 458 bng 15 250 50 0 empty empty empty 17 7 0 10 -262144
-1 -1;
#X obj 823 501 iemguts/canvasdollarzero 3;
#X connect 0 0 1 0;
#X connect 1 0 32 0;
#X connect 2 0 31 0;
#X connect 3 0 8 0;
#X connect 4 0 15 0;
#X connect 5 0 29 0;
#X connect 6 0 22 0;
#X connect 7 0 11 0;
#X connect 8 0 10 0;
#X connect 8 1 9 1;
#X connect 9 0 12 0;
#X connect 10 0 9 0;
#X connect 11 0 10 1;
#X connect 12 0 13 0;
#X connect 13 0 25 0;
#X connect 14 0 1 1;
#X connect 15 0 37 0;
#X connect 16 0 15 0;
#X connect 17 0 2 0;
#X connect 18 0 21 0;
#X connect 19 0 2 1;
#X connect 20 0 39 0;
#X connect 21 0 20 0;
#X connect 22 0 39 0;
#X connect 23 0 24 1;
#X connect 24 0 30 0;
#X connect 25 0 24 0;
#X connect 25 1 23 0;
#X connect 26 0 27 1;
#X connect 27 0 28 0;
#X connect 28 0 39 0;
#X connect 29 0 27 0;
#X connect 29 1 26 0;
#X connect 30 0 39 0;
#X connect 31 0 0 0;
#X connect 31 1 14 0;
#X connect 32 0 39 0;
#X connect 37 0 39 0;
#X connect 38 0 42 0;
#X connect 40 0 39 1;
#X connect 41 0 38 0;
#X connect 42 0 40 0;
#X restore -36 110 pd canvas_appearance;
#N canvas 340 281 546 240 creationbang 0;
#X obj 69 110 outlet creationbang;
#X obj 203 110 outlet delayed creationbang;
#X obj 69 -73 loadbang;
#X obj 69 10 spigot 1;
#X msg 114 -14 0;
#X obj 69 -47 t b b;
#X text 125 10 accepts loadbang only 1st time;
#X obj 69 39 t b b b;
#X obj 376 109 outlet init bpm;
#X obj 376 87 delay 100;
#X connect 2 0 5 0;
#X connect 3 0 7 0;
#X connect 4 0 3 1;
#X connect 5 0 4 0;
#X connect 5 1 3 0;
#X connect 7 0 9 0;
#X connect 7 1 1 0;
#X connect 7 2 0 0;
#X connect 9 0 8 0;
#X restore -36 -393 pd creationbang;
#N canvas 402 275 584 406 moduleID 0;
#X obj 91 66 inlet bang;
#X obj 91 216 outlet moduleID;
#X obj 91 87 s vt_init_moduleID;
#X obj 91 114 r vt_moduleID;
#X obj 91 193 spigot 1;
#X msg 136 169 0;
#X obj 91 136 t b f;
#X text 148 193 accepts value only 1st time;
#X floatatom 39 275 5 0 0 0 - - -;
#X connect 0 0 2 0;
#X connect 3 0 6 0;
#X connect 4 0 1 0;
#X connect 4 0 8 0;
#X connect 5 0 4 1;
#X connect 6 0 5 0;
#X connect 6 1 4 0;
#X restore 22 -193 pd moduleID;
#N canvas 253 299 831 476 audio_track_output 0;
#X obj 32 25 inlet~;
#X obj 263 23 inlet track;
#X obj 49 333 throw~ audio1;
#X obj 67 310 throw~ audio2;
#X obj 83 287 throw~ audio3;
#X obj 101 264 throw~ audio4;
#X obj 119 242 throw~ audio5;
#X obj 136 220 throw~ audio6;
#X obj 152 333 throw~ audio7;
#X obj 171 309 throw~ audio8;
#X obj 188 285 throw~ audio9;
#X obj 205 263 throw~ audio10;
#X obj 222 242 throw~ audio11;
#X obj 238 221 throw~ audio12;
#X obj 263 97 tabread track_output_table;
#X obj 263 76 f;
#X obj 139 23 r vt_track_trigger;
#X text 187 44 bang;
#X obj 32 192 demux~ 0 1 2 3 4 5 6 7 8 9 10 11 12;
#X obj 263 49 + 1;
#X obj 340 352 outlet track;
#X obj 453 28 inlet~;
#X obj 469 338 throw~ audio1;
#X obj 487 315 throw~ audio2;
#X obj 503 292 throw~ audio3;
#X obj 521 269 throw~ audio4;
#X obj 539 247 throw~ audio5;
#X obj 556 225 throw~ audio6;
#X obj 572 338 throw~ audio7;
#X obj 591 314 throw~ audio8;
#X obj 608 290 throw~ audio9;
#X obj 625 268 throw~ audio10;
#X obj 642 247 throw~ audio11;
#X obj 658 226 throw~ audio12;
#X obj 452 197 demux~ 0 1 2 3 4 5 6 7 8 9 10 11 12;
#X obj 401 128 sel 0;
#X obj 428 153 + 1;
#X msg 401 153 0;
#X connect 0 0 18 0;
#X connect 1 0 19 0;
#X connect 14 0 18 0;
#X connect 14 0 20 0;
#X connect 14 0 35 0;
#X connect 15 0 14 0;
#X connect 16 0 15 0;
#X connect 18 1 2 0;
#X connect 18 2 3 0;
#X connect 18 3 4 0;
#X connect 18 4 5 0;
#X connect 18 5 6 0;
#X connect 18 6 7 0;
#X connect 18 7 8 0;
#X connect 18 8 9 0;
#X connect 18 9 10 0;
#X connect 18 10 11 0;
#X connect 18 11 12 0;
#X connect 18 12 13 0;
#X connect 19 0 15 0;
#X connect 21 0 34 0;
#X connect 34 1 22 0;
#X connect 34 2 23 0;
#X connect 34 3 24 0;
#X connect 34 4 25 0;
#X connect 34 5 26 0;
#X connect 34 6 27 0;
#X connect 34 7 28 0;
#X connect 34 8 29 0;
#X connect 34 9 30 0;
#X connect 34 10 31 0;
#X connect 34 11 32 0;
#X connect 34 12 33 0;
#X connect 35 0 37 0;
#X connect 35 1 36 0;
#X connect 36 0 34 0;
#X connect 37 0 34 0;
#X restore 563 7 pd audio_track_output;
#N canvas 205 385 442 340 data_track_output 0;
#X obj 37 59 inlet data track;
#X obj 53 210 s data1;
#X obj 70 188 s data2;
#X obj 87 164 s data3;
#X obj 104 210 s data4;
#X obj 137 165 s data6;
#X obj 153 210 s data7;
#X obj 170 188 s data8;
#X obj 187 165 s data9;
#X obj 204 210 s data10;
#X obj 221 187 s data11;
#X obj 238 164 s data12;
#X obj 238 5 inlet track;
#X obj 238 63 f;
#X obj 171 -17 r vt_track_trigger;
#X text 285 -15 bang;
#X obj 238 88 tabread track_output_table;
#X obj 37 140 demux 0 1 2 3 4 5 6 7 8 9 10 11 12;
#X obj 120 188 s data5;
#X obj 238 33 + 1;
#X obj 326 251 outlet track;
#X connect 0 0 17 0;
#X connect 12 0 19 0;
#X connect 13 0 16 0;
#X connect 14 0 13 0;
#X connect 16 0 17 1;
#X connect 16 0 20 0;
#X connect 17 1 1 0;
#X connect 17 2 2 0;
#X connect 17 3 3 0;
#X connect 17 4 4 0;
#X connect 17 5 18 0;
#X connect 17 6 5 0;
#X connect 17 7 6 0;
#X connect 17 8 7 0;
#X connect 17 9 8 0;
#X connect 17 10 9 0;
#X connect 17 11 10 0;
#X connect 17 12 11 0;
#X connect 19 0 13 0;
#X restore 545 -55 pd data_track_output;
#X text 519 152 More info code.google.com/p/visualtracker;
#X text -40 132 This abstraction connects module abstraction with main
VisualTracker patch. To preserve compatibility of module with future
updates of VisualTracker DO NOT edit this abstraction.;
#X text -41 -451 Connector version: 1;
#N canvas 404 205 1051 648 get_cnv_position 0;
#X obj -142 119 unpack;
#X obj -142 222 / 8;
#X obj 103 252 / 30;
#X obj -103 534 outlet x pos;
#X obj 142 533 outlet y pos;
#X text 82 152 row distance;
#X text -161 162 bar distance;
#X obj -103 394 expr ceil($f1 \, 0);
#X obj -103 368 - 0.5;
#X obj 142 342 expr ceil($f1 \, 0);
#X obj 142 317 - 0.5;
#X obj 103 289 moses 0;
#X obj -142 300 moses 0;
#X msg 160 397 0;
#X obj 103 367 moses -2.5;
#X obj 240 534 outlet on;
#X obj 314 533 outlet off;
#X obj -195 465 bang;
#X obj -210 442 sel;
#X obj 55 460 bang;
#X obj 40 437 sel;
#X obj 55 483 delay 100;
#X text 420 84 set active timeline range;
#X obj -195 488 delay 100;
#X obj -142 145 change;
#X obj 103 136 change;
#X msg -142 321 0;
#X obj 521 26 inlet creation bang;
#X obj -195 533 outlet x bang;
#X obj 55 533 outlet y bang;
#X obj -142 58 route position;
#X obj -142 25 r \$1-module-input;
#X obj 103 210 - 90;
#X text 153 198 vertical coordinate;
#X text 154 222 relative to the top of the first track;
#X text 134 210 <- of the timeline abstraction;
#X connect 0 0 24 0;
#X connect 0 1 25 0;
#X connect 1 0 12 0;
#X connect 1 0 18 1;
#X connect 2 0 11 0;
#X connect 2 0 20 1;
#X connect 7 0 3 0;
#X connect 7 0 18 0;
#X connect 8 0 7 0;
#X connect 9 0 20 0;
#X connect 9 0 4 0;
#X connect 10 0 9 0;
#X connect 11 0 14 0;
#X connect 11 1 10 0;
#X connect 11 1 15 0;
#X connect 12 0 26 0;
#X connect 12 1 8 0;
#X connect 13 0 4 0;
#X connect 14 0 16 0;
#X connect 14 0 4 0;
#X connect 14 1 13 0;
#X connect 14 1 15 0;
#X connect 17 0 23 0;
#X connect 18 1 17 0;
#X connect 19 0 21 0;
#X connect 20 1 19 0;
#X connect 21 0 29 0;
#X connect 23 0 28 0;
#X connect 24 0 1 0;
#X connect 25 0 32 0;
#X connect 26 0 3 0;
#X connect 27 0 15 0;
#X connect 30 0 0 0;
#X connect 31 0 30 0;
#X connect 32 0 2 0;
#X restore 276 -338 pd get_cnv_position;
#N canvas 633 374 729 427 set_cnv_position 0;
#X obj 14 217 f;
#X obj 14 250 pack f f f;
#X obj 41 67 * 8;
#X obj 220 96 f;
#X obj 240 66 * 30;
#X obj 14 14 inlet position;
#X obj 14 42 t b f;
#X obj 71 69 loadbang;
#X obj 201 15 inlet track;
#X obj 201 42 t b b f;
#X text 253 121 visual correction;
#X obj 71 94 f \$1;
#N canvas 506 360 333 185 timeline_pass 0;
#X obj 73 26 inlet;
#X obj 73 130 outlet;
#X obj 129 26 inlet on;
#X obj 194 25 inlet off;
#X msg 129 52 1;
#X msg 194 52 0;
#X obj 73 96 spigot 1;
#X connect 0 0 6 0;
#X connect 2 0 4 0;
#X connect 3 0 5 0;
#X connect 4 0 6 1;
#X connect 5 0 6 1;
#X connect 6 0 1 0;
#X restore 14 295 pd timeline_pass;
#X obj 220 149 t b f;
#X obj 457 15 inlet on;
#X obj 522 14 inlet off;
#X obj -68 14 inlet x bang;
#X obj 110 14 inlet y bang;
#X msg 14 326 set_position \$1 \$2 \$3;
#X obj 239 279 loadbang;
#X msg 239 324 symbol \$1-timeline;
#X obj 14 367 s;
#X obj 239 302 iemguts/canvasdollarzero 3;
#X obj 457 178 t a;
#X obj 522 178 t a;
#X obj 220 122 + 90;
#X connect 0 0 1 0;
#X connect 1 0 12 0;
#X connect 2 0 0 1;
#X connect 3 0 25 0;
#X connect 4 0 3 1;
#X connect 5 0 6 0;
#X connect 6 0 0 0;
#X connect 6 1 2 0;
#X connect 7 0 11 0;
#X connect 8 0 9 0;
#X connect 9 0 0 0;
#X connect 9 1 3 0;
#X connect 9 2 4 0;
#X connect 11 0 1 2;
#X connect 12 0 18 0;
#X connect 13 0 0 0;
#X connect 13 1 1 1;
#X connect 14 0 23 0;
#X connect 15 0 24 0;
#X connect 16 0 0 0;
#X connect 17 0 3 0;
#X connect 18 0 21 0;
#X connect 19 0 22 0;
#X connect 20 0 21 1;
#X connect 22 0 20 0;
#X connect 23 0 12 1;
#X connect 24 0 12 2;
#X connect 25 0 13 0;
#X restore 276 -216 pd set_cnv_position;
#X floatatom 298 -282 5 0 0 0 - - -;
#X floatatom 342 -281 5 0 0 0 - - -;
#X text 599 135 built in Pd 0.42.5-extended;
#N canvas 438 446 618 413 module_duration 0;
#X obj 392 9 f;
#X obj 392 -141 inlet bars;
#X obj 392 -36 *;
#X obj 162 -142 inlet switch;
#X obj 162 8 f;
#X obj 332 169 outlet object duration;
#X obj 11 -142 inlet original duration;
#X obj 270 -142 inlet original bpm;
#X obj 270 -38 /;
#X obj 270 73 *;
#X obj 270 9 f;
#X obj 162 -41 demux 0 1 2;
#X obj 162 -71 t b f;
#X obj 162 169 outlet whole duration;
#X obj 491 -142 inlet multi;
#X obj 392 75 *;
#X obj 491 -70 t b f;
#X obj 407 -119 r vt_bartime;
#X obj 285 -118 r vt_bpm;
#X obj 285 -67 t b f;
#X obj 407 -68 t b f;
#X obj 162 -97 f;
#X obj 174 -120 r vt_init_fit;
#X connect 0 0 5 0;
#X connect 0 0 15 0;
#X connect 1 0 2 0;
#X connect 2 0 0 0;
#X connect 3 0 21 0;
#X connect 4 0 5 0;
#X connect 4 0 13 0;
#X connect 6 0 9 1;
#X connect 6 0 4 1;
#X connect 7 0 8 0;
#X connect 8 0 10 0;
#X connect 9 0 5 0;
#X connect 9 0 13 0;
#X connect 10 0 9 0;
#X connect 11 0 4 0;
#X connect 11 1 10 0;
#X connect 11 2 0 0;
#X connect 12 0 11 0;
#X connect 12 1 11 1;
#X connect 14 0 16 0;
#X connect 15 0 13 0;
#X connect 16 0 0 0;
#X connect 16 1 15 1;
#X connect 17 0 20 0;
#X connect 18 0 19 0;
#X connect 19 0 8 0;
#X connect 19 1 8 1;
#X connect 20 0 2 0;
#X connect 20 1 2 1;
#X connect 21 0 12 0;
#X connect 22 0 21 0;
#X restore 81 74 pd module_duration;
#X obj 342 -311 + 1;
#X obj 342 -246 - 1;
#N canvas 689 186 709 506 generate_execute_points 0;
#X obj 67 241 zl sect;
#X obj 67 80 t f b;
#X msg 106 171 59;
#X msg 140 130 add2 \$1;
#X msg 106 109 set;
#X obj 337 63 float;
#X msg 356 -9 stop;
#X obj 400 115 select;
#X obj 176 -80 *;
#X obj 337 -58 t b b f;
#X obj 164 -121 t b f;
#X obj 337 -84 f;
#X obj 325 -124 t b f;
#X obj 246 -80 +;
#X obj 234 -121 t b f;
#X msg 422 26 0;
#X obj 234 -146 inlet offset;
#X obj 164 -146 inlet bars;
#X obj 325 -150 inlet multiply;
#X obj 400 90 + 1;
#X obj 337 24 metro 1;
#X text 337 133 counter generates bang points by multiplication of
number of bars per sample;
#X obj 67 327 outlet bang;
#X text 447 24 reset counter;
#X text 128 151 generated bang points;
#X msg 67 264 bang;
#X obj 67 -150 r vt_sequence;
#N canvas 490 280 333 185 timeline_pass 0;
#X obj 73 26 inlet;
#X obj 73 130 outlet;
#X obj 73 96 spigot;
#X obj 129 26 inlet on;
#X obj 194 25 inlet off;
#X msg 129 52 1;
#X msg 194 52 0;
#X connect 0 0 2 0;
#X connect 2 0 1 0;
#X connect 3 0 5 0;
#X connect 4 0 6 0;
#X connect 5 0 2 1;
#X connect 6 0 2 1;
#X restore 67 297 pd timeline_pass;
#X obj 425 -149 inlet on;
#X obj 491 -148 inlet off;
#X obj 140 104 + 1;
#X connect 0 0 25 0;
#X connect 1 0 0 0;
#X connect 1 1 2 0;
#X connect 2 0 0 1;
#X connect 3 0 2 0;
#X connect 4 0 2 0;
#X connect 5 0 8 0;
#X connect 5 0 19 0;
#X connect 6 0 20 0;
#X connect 7 0 15 0;
#X connect 7 0 6 0;
#X connect 8 0 13 0;
#X connect 9 0 20 0;
#X connect 9 1 4 0;
#X connect 9 1 15 0;
#X connect 9 2 7 1;
#X connect 10 0 11 0;
#X connect 10 1 8 1;
#X connect 11 0 9 0;
#X connect 12 0 11 0;
#X connect 12 1 11 1;
#X connect 13 0 30 0;
#X connect 14 0 11 0;
#X connect 14 1 13 1;
#X connect 15 0 5 1;
#X connect 16 0 14 0;
#X connect 17 0 10 0;
#X connect 18 0 12 0;
#X connect 19 0 5 1;
#X connect 19 0 7 0;
#X connect 20 0 5 0;
#X connect 25 0 27 0;
#X connect 26 0 1 0;
#X connect 27 0 22 0;
#X connect 28 0 27 1;
#X connect 29 0 27 2;
#X connect 30 0 3 0;
#X restore 315 -82 pd generate_execute_points;
#X obj 3 -215 r \$1-NAME;
#X obj 42 -150 r \$1-RESET_CNV_POSITION;
#X obj 61 -125 r \$1-RESET_CNV_SIZE;
#X obj 54 -100 r \$1-ORIG_DURATION;
#X obj 133 11 r \$1-ORIG_BPM;
#X obj 159 31 r \$1-BARS;
#X obj 186 51 r \$1-MULTI;
#X obj 562 -23 r~ \$1-AUDIO1;
#X obj 545 -80 r \$1-DATA;
#X obj 686 -19 r~ \$1-AUDIO2;
#X obj 315 -55 s \$1-EXECUTE;
#X obj 545 39 s \$1-OUTPUT_TRACK;
#X obj 186 107 s \$1-DURATION;
#X obj -17 -290 r \$1-COLOR;
#X obj 32 -170 s \$1-ID;
#X obj -8 -240 s \$1-COLOR_PRESET;
#X obj 551 -340 r \$1-SET_POSITION;
#X obj 167 -246 s \$1-GET_POSITION;
#X obj 686 -340 r \$1-SET_TRACK;
#X obj 400 -256 s \$1-GET_TRACK;
#X text -41 -437 Optimised for VisualTracker 1;
#X obj 107 -10 r \$1-FIT;
#X obj 315 -112 r \$1-BARS;
#X obj 391 -112 r \$1-MULTI;
#X obj 51 -363 s vt_init_bpm;
#X obj 7 -314 s \$1-CREATIONBANG;
#N canvas 62 398 729 427 hardset_cnv_position 0;
#X obj 221 263 f;
#X obj 221 296 pack f f f;
#X obj 248 113 * 8;
#X obj 385 142 f;
#X obj 405 112 * 30;
#X obj 221 35 inlet position;
#X obj 221 88 t b f;
#X obj 278 115 loadbang;
#X obj 366 36 inlet track;
#X obj 366 88 t b b f;
#X text 418 167 visual correction;
#X obj 278 140 f \$1;
#X obj 385 195 t b f;
#X obj 366 60 - 1;
#X msg 221 333 set_position \$1 \$2 \$3;
#X obj 431 286 loadbang;
#X msg 431 331 symbol \$1-timeline;
#X obj 221 378 s;
#X obj 431 309 iemguts/canvasdollarzero 2;
#X obj 385 168 + 90;
#X connect 0 0 1 0;
#X connect 1 0 14 0;
#X connect 2 0 0 1;
#X connect 3 0 19 0;
#X connect 4 0 3 1;
#X connect 5 0 6 0;
#X connect 6 0 0 0;
#X connect 6 1 2 0;
#X connect 7 0 11 0;
#X connect 8 0 13 0;
#X connect 9 0 0 0;
#X connect 9 1 3 0;
#X connect 9 2 4 0;
#X connect 11 0 1 2;
#X connect 12 0 0 0;
#X connect 12 1 1 1;
#X connect 13 0 9 0;
#X connect 14 0 17 0;
#X connect 15 0 18 0;
#X connect 16 0 17 0;
#X connect 18 0 16 0;
#X connect 19 0 12 0;
#X restore 551 -314 pd hardset_cnv_position;
#X obj 550 -198 r \$1-GOP_SIZE;
#X obj 551 -255 l2s;
#X obj 18 -363 f \$1;
#X obj 18 -339 s vt_load_local_values_now;
#X obj 551 -230 mstorage \$1 0 0 symbol 0 none;
#X obj 551 -281 r \$1-MODULE_FILENAME;
#X obj 54 -33 s vt_init_fit;
#X obj 54 -76 t b f;
#X obj 54 -55 delay 100;
#X obj 550 -171 mstorage \$1 900 0 end 0 none;
#X connect 1 0 0 0;
#X connect 1 1 8 0;
#X connect 1 1 42 0;
#X connect 1 1 2 0;
#X connect 1 2 41 0;
#X connect 1 2 46 0;
#X connect 2 0 0 3;
#X connect 2 0 31 0;
#X connect 3 0 28 0;
#X connect 4 0 28 0;
#X connect 8 0 9 0;
#X connect 8 1 10 0;
#X connect 8 2 9 2;
#X connect 8 3 14 0;
#X connect 8 4 9 4;
#X connect 8 4 16 3;
#X connect 8 5 16 4;
#X connect 8 5 9 5;
#X connect 10 0 9 1;
#X connect 10 0 16 1;
#X connect 10 0 34 0;
#X connect 11 0 15 0;
#X connect 11 0 36 0;
#X connect 13 0 0 6;
#X connect 13 1 29 0;
#X connect 14 0 11 0;
#X connect 15 0 9 3;
#X connect 15 0 4 1;
#X connect 15 0 3 1;
#X connect 16 0 27 0;
#X connect 17 0 0 2;
#X connect 18 0 0 4;
#X connect 19 0 0 5;
#X connect 20 0 51 0;
#X connect 21 0 13 2;
#X connect 22 0 13 3;
#X connect 23 0 13 4;
#X connect 24 0 3 0;
#X connect 25 0 4 0;
#X connect 26 0 3 2;
#X connect 30 0 32 0;
#X connect 30 0 0 1;
#X connect 33 0 43 0;
#X connect 35 0 43 1;
#X connect 38 0 13 1;
#X connect 39 0 16 0;
#X connect 40 0 16 2;
#X connect 44 0 53 0;
#X connect 45 0 48 0;
#X connect 46 0 47 0;
#X connect 49 0 45 0;
#X connect 51 0 52 0;
#X connect 51 1 13 0;
#X connect 52 0 50 0;
