#N canvas 237 366 432 259 10;
#X obj 100 100 tgl 20 0 \$0-from_toggle1 \$0-to_toggle1 empty 17 7
0 10 -262144 -262144 -262144 1 1;
#X obj 174 55 route 1;
#X msg 213 83 color 0 0 0;
#X obj 100 132 outlet;
#X obj 100 57 inlet;
#X text 293 84 off color;
#X text 264 132 on color;
#X obj -38 132 s vt_rebuild_sequence;
#X obj -38 105 bang;
#X obj 250 55 inlet;
#X msg 174 132 color \$1 \$1 0;
#X obj 174 79 f;
#X connect 0 0 1 0;
#X connect 0 0 3 0;
#X connect 0 0 8 0;
#X connect 1 0 11 0;
#X connect 1 1 2 0;
#X connect 2 0 0 0;
#X connect 4 0 0 0;
#X connect 8 0 7 0;
#X connect 9 0 11 1;
#X connect 10 0 0 0;
#X connect 11 0 10 0;
#X coords 0 -1 1 1 20 20 2 100 100;
