#N canvas 402 217 496 326 10;
#X obj 100 262 outlet;
#X obj 100 -12 inlet;
#X obj -54 239 s vt_rebuild_sequence;
#X obj -54 218 bang;
#X obj 100 112 vsl 20 50 0 100 0 0 send receive 0 7 47 0 10 -225280
-166441 -33289 0 0;
#X obj -3 170 div;
#X obj 138 9 f;
#X obj -3 191 mergefilename;
#X msg -3 213 label \$1;
#X obj 100 100 nbx 1 10 0 1000 0 0 send receive empty 0 -5 1 15 -225280
-225280 -33289 0 256;
#X msg 138 29 color \$1 \$1 12;
#X msg 138 209 label_pos 7 47;
#X msg 182 187 label_pos 4 47;
#X msg 233 167 label_pos 1 47;
#X obj 137 97 moses 10;
#X obj 182 124 moses 100;
#X obj 137 190 bang;
#X obj 182 167 bang;
#X obj 233 145 bang;
#X obj 138 -12 inlet color;
#X msg 148 52 color \$1 1 12;
#X msg 254 52 range \$1 \$2;
#X obj 254 -12 inlet range;
#X connect 1 0 4 0;
#X connect 3 0 2 0;
#X connect 4 0 5 0;
#X connect 5 0 3 0;
#X connect 5 0 7 0;
#X connect 5 0 14 0;
#X connect 5 0 0 0;
#X connect 6 0 10 0;
#X connect 6 0 20 0;
#X connect 7 0 8 0;
#X connect 8 0 4 0;
#X connect 9 0 4 0;
#X connect 9 0 5 0;
#X connect 10 0 9 0;
#X connect 11 0 4 0;
#X connect 12 0 4 0;
#X connect 13 0 4 0;
#X connect 14 0 16 0;
#X connect 14 1 15 0;
#X connect 15 0 17 0;
#X connect 15 1 18 0;
#X connect 16 0 11 0;
#X connect 17 0 12 0;
#X connect 18 0 13 0;
#X connect 19 0 6 0;
#X connect 20 0 4 0;
#X connect 21 0 9 0;
#X connect 21 0 4 0;
#X connect 22 0 21 0;
#X coords 0 -1 1 1 20 65 2 100 100;
