#N canvas 140 29 1220 672 10;
#X text 906 507 More info code.google.com/p/visualtracker;
#X obj 1 121 cnv 15 408 95 empty \$0-background vt_audio_track 5 8
1 12 -233017 -1 0;
#X symbolatom 522 31 10 0 0 0 - - -;
#X obj 188 124 nbx 3 14 0 19 0 0 \$0-from_gop_color \$0-to_gop_color
color: -28 7 1 10 -262144 -1 -1 0 256;
#X obj 360 124 nbx 4 14 1 1e+37 0 0 \$0-from_gop_module_ID \$0-to_gop_module_ID
module_ID: -57 7 1 10 -233017 -1 -1 5 256;
#X obj 388 193 bng 15 250 50 0 \$0-from_gop_play \$0-to_gop_play play:
-25 7 1 10 -262144 -1 -1;
#X obj 603 318 r vt_seq_stop;
#N canvas 818 109 411 255 percentage 0;
#X obj 183 -12 * 100;
#X obj 183 18 outlet sample percentage;
#X obj 183 -122 inlet original duration;
#X obj 40 -124 inlet current duration;
#X obj 183 -39 /;
#X obj 183 -70 t b f;
#X connect 0 0 1 0;
#X connect 2 0 5 0;
#X connect 3 0 4 0;
#X connect 4 0 0 0;
#X connect 5 0 4 0;
#X connect 5 1 4 1;
#X restore 595 265 pd percentage;
#X obj 4 162 bng 15 250 50 0 \$0-from_gop_load \$0-to_gop_load load
18 7 1 10 -262144 -1 -1;
#X obj 46 162 bng 15 250 50 0 \$0-from_gop_unload \$0-to_gop_unload
unload 18 7 1 10 -262144 -1 -1;
#N canvas 600 93 442 418 play_sample 0;
#X obj 28 -135 inlet play bang;
#X obj 104 202 outlet~;
#X obj 249 -135 inlet stop;
#X obj 159 202 outlet~;
#X obj 105 174 readsf~ 2 1e+06;
#X obj -65 -135 inlet filename;
#X msg 28 132 start;
#X msg 105 130 stop;
#X obj 28 -108 t b b;
#X obj 55 59 pack s f;
#X msg 55 99 open \$1 \$2;
#X obj 130 -135 inlet offset [ms];
#X text 212 -8 sample rate;
#X obj 169 -7 * 44.1;
#X obj 130 -106 moses 0;
#X msg 130 -36 0;
#X obj 28 -9 delay;
#X msg 94 -37 0;
#X obj 95 -79 * -1;
#X connect 0 0 8 0;
#X connect 2 0 7 0;
#X connect 4 0 1 0;
#X connect 4 1 3 0;
#X connect 5 0 9 0;
#X connect 6 0 4 0;
#X connect 7 0 4 0;
#X connect 8 0 16 0;
#X connect 8 1 9 0;
#X connect 9 0 10 0;
#X connect 10 0 4 0;
#X connect 11 0 14 0;
#X connect 13 0 9 1;
#X connect 14 0 15 0;
#X connect 14 0 18 0;
#X connect 14 1 13 0;
#X connect 14 1 17 0;
#X connect 15 0 9 1;
#X connect 16 0 6 0;
#X connect 17 0 16 1;
#X connect 18 0 16 1;
#X restore 522 369 pd play_sample;
#N canvas 423 159 608 513 read_sample 0;
#X obj 29 -73 inlet filename;
#X obj 252 -73 inlet reset array size;
#X obj 29 -13 select no_sample;
#X msg 29 86 symbol no_sample;
#X obj 29 -43 l2s;
#X obj 139 367 splitfilename .;
#X obj 139 392 outlet name;
#X obj 29 307 symbol;
#X obj 29 392 outlet filename;
#X obj 252 395 outlet array size;
#X obj 64 341 splitfilename;
#X obj 351 60 soundfile_info;
#X obj 351 84 unpack f s f f f f s f;
#X msg 351 37 read \$1;
#X obj 424 394 outlet number of channels;
#X obj 29 109 l2s;
#X connect 0 0 4 0;
#X connect 1 0 9 0;
#X connect 2 0 3 0;
#X connect 2 1 13 0;
#X connect 2 1 7 0;
#X connect 3 0 15 0;
#X connect 4 0 2 0;
#X connect 5 0 6 0;
#X connect 7 0 8 0;
#X connect 7 0 10 0;
#X connect 10 1 5 0;
#X connect 11 0 12 0;
#X connect 12 2 9 0;
#X connect 12 4 14 0;
#X connect 13 0 11 0;
#X connect 15 0 6 0;
#X restore 522 85 pd read_sample;
#N canvas 408 227 589 534 load_action 0;
#X obj 22 -144 inlet sample load bang;
#X obj 49 -11 spigot;
#X obj 82 -31 tgl 15 1 empty empty empty 17 7 0 10 -262144 -1 -1 1
1;
#X msg 64 -57 0;
#X msg 95 -57 1;
#X obj 22 -116 t b b;
#X obj 95 -81 delay 1000;
#X text 102 -33 avoid double click;
#X obj 49 16 openpanel;
#X obj 49 39 splitfilename space;
#X obj 160 66 makefilename none%s;
#X obj 160 92 select none;
#X obj 16 141 symbol;
#X obj 223 142 symbol;
#X msg 223 117 LOADING_ERROR_-_no_spaces_in_path_or_filename_allowed
;
#X obj 223 217 symbol;
#X msg 223 164 bang;
#X obj 74 117 delay 100;
#X obj 223 185 delay 2500;
#X obj 16 294 outlet filename;
#X obj 137 294 outlet space error;
#X obj 49 66 mergefilename;
#X text 17 312 path + filename;
#X obj 272 141 print;
#X connect 0 0 5 0;
#X connect 1 0 8 0;
#X connect 2 0 1 1;
#X connect 3 0 2 0;
#X connect 4 0 2 0;
#X connect 5 0 3 0;
#X connect 5 0 6 0;
#X connect 5 1 1 0;
#X connect 6 0 4 0;
#X connect 8 0 9 0;
#X connect 9 0 21 0;
#X connect 9 1 10 0;
#X connect 10 0 11 0;
#X connect 11 0 17 0;
#X connect 11 1 14 0;
#X connect 12 0 15 1;
#X connect 12 0 19 0;
#X connect 13 0 16 0;
#X connect 14 0 13 0;
#X connect 14 0 23 0;
#X connect 15 0 20 0;
#X connect 15 0 19 0;
#X connect 16 0 18 0;
#X connect 17 0 12 0;
#X connect 18 0 15 0;
#X connect 21 0 12 1;
#X restore 522 -4 pd load_action;
#N canvas 380 213 859 300 unload_action 0;
#X msg 207 39 bang;
#X obj 355 208 outlet no sample;
#X msg 355 162 no_sample;
#X obj 19 209 outlet reset pos;
#X msg 485 153 const 0;
#X obj 485 178 s \$0-table;
#X text 482 196 clear table;
#X obj 241 209 outlet reset to 1;
#X msg 241 187 1;
#X msg 126 185 0;
#X obj 207 14 inlet unload;
#X obj -141 209 outlet reset canvas size;
#X obj 355 185 l2s;
#X obj 126 209 outlet reset to 0;
#X connect 0 0 2 0;
#X connect 0 0 4 0;
#X connect 0 0 3 0;
#X connect 0 0 11 0;
#X connect 0 0 9 0;
#X connect 0 0 8 0;
#X connect 2 0 12 0;
#X connect 4 0 5 0;
#X connect 8 0 7 0;
#X connect 9 0 13 0;
#X connect 10 0 0 0;
#X connect 12 0 1 0;
#X restore 249 274 pd unload_action;
#N canvas 0 22 450 300 original_duration 0;
#X obj 174 -78 / 44.1;
#X obj 174 -134 inlet array size;
#X text 78 -78 samplerate / ms;
#X obj 174 106 outlet sample duration;
#X connect 0 0 3 0;
#X connect 1 0 0 0;
#X restore 670 153 pd original_duration;
#X symbolatom 4 140 66 0 0 0 - #0-to_gop_name #0-from_gop_name;
#X obj 263 124 nbx 3 14 0 1e+37 0 0 \$0-from_gop_output \$0-to_gop_output
output: -34 7 1 10 -233017 -1 -1 0 256;
#X obj 47 192 nbx 4 14 -100 1e+37 0 0 \$0-from_gop_gain \$0-to_gop_gain
gain+: -30 7 1 10 -262144 -1 -1 0 256;
#N canvas 336 71 450 300 gain 0;
#X obj 18 15 inlet~ audio stream;
#X obj 19 184 outlet~ audio stream;
#X obj 170 42 / 100;
#X obj 19 113 *~;
#X obj 170 65 + 1;
#X obj 282 182 outlet~ audio stream2;
#X obj 284 16 inlet~ audio stream;
#X obj 283 101 *~;
#X obj 170 15 inlet delta gain;
#X connect 0 0 3 0;
#X connect 2 0 4 0;
#X connect 3 0 1 0;
#X connect 4 0 3 1;
#X connect 4 0 7 1;
#X connect 6 0 7 0;
#X connect 7 0 5 0;
#X connect 8 0 2 0;
#X restore 542 418 pd gain;
#X text 90 191 %;
#X obj 146 192 nbx 6 14 -1e+06 1e+37 0 0 \$0-from_gop_offset \$0-to_gop_offset
offset: -30 7 1 10 -262144 -1 -1 0 256;
#X text 202 192 [ms];
#N canvas 584 57 468 352 module_colors 0;
#X obj 134 126 pack f f;
#X obj 134 68 t b f;
#X obj 134 100 f \$0;
#X obj 134 36 inlet;
#X msg 181 166 \; \$1-to_gop_output color \$2 22;
#X msg 158 206 \; \$1-background color \$2 22;
#X msg 126 243 \; \$1-to_gop_module_ID color \$2 22;
#X msg 91 279 \; \$1-to_gop_trackchannels color \$2 22;
#X connect 0 0 4 0;
#X connect 0 0 5 0;
#X connect 0 0 6 0;
#X connect 0 0 7 0;
#X connect 1 0 2 0;
#X connect 1 1 0 1;
#X connect 2 0 0 0;
#X connect 3 0 1 0;
#X restore 6 -67 pd module_colors;
#X obj 388 162 tgl 15 0 \$0-from_gop_merge2mono \$0-to_gop_merge2mono
merge_channels: -82 8 1 10 -262144 -1 -1 0 1;
#X obj 946 -92 r \$0-GET_TRACK;
#X obj 6 -37 r \$0-EXECUTE;
#X obj 277 -94 r \$0-ID;
#X obj 138 -96 r \$0-OUTPUT_TRACK;
#X obj 945 -29 r \$0-GET_POSITION;
#X obj 6 -96 r \$0-COLOR_PRESET;
#X obj 945 9 s \$0-SET_POSITION;
#X obj 946 -54 s \$0-SET_TRACK;
#X obj 520 488 s~ \$0-AUDIO1;
#X obj 603 487 s~ \$0-AUDIO2;
#X obj 680 181 s \$0-ORIG_DURATION;
#X obj 0 270 s \$0-COLOR;
#X obj 138 -66 s \$0-to_gop_output;
#X obj 277 -67 s \$0-to_gop_module_ID;
#X obj 6 -14 s \$0-to_gop_play;
#X obj 549 196 r \$0-from_gop_play;
#X obj 595 241 r \$0-DURATION;
#X obj 522 -27 r \$0-from_gop_load;
#X obj 603 59 s \$0-to_gop_name;
#X obj 576 218 r \$0-from_gop_offset;
#X obj 595 290 s \$0-to_gop_percentage;
#X obj 561 441 r \$0-from_gop_merge2mono;
#X obj 561 394 r \$0-from_gop_gain;
#X obj 249 241 r \$0-from_gop_unload;
#X obj 272 387 s \$0-RESET_CNV_SIZE;
#X obj 249 413 s \$0-RESET_CNV_POSITION;
#X obj 549 137 s \$0-NAME;
#X obj 342 339 s \$0-NAME;
#X obj 946 118 r \$0-from_gop_color;
#X obj 946 156 s \$0-to_gop_color;
#X obj 945 55 r \$0-from_gop_fit;
#X obj 945 93 s \$0-to_gop_fit;
#X obj 947 241 r \$0-from_gop_offset;
#X obj 947 280 s \$0-to_gop_offset;
#X obj 947 302 r \$0-from_gop_merge2mono;
#X obj 947 341 s \$0-to_gop_merge2mono;
#X obj 0 245 r \$0-from_gop_color;
#X obj 355 -17 r vt_bpm;
#X obj 946 180 r \$0-from_gop_gain;
#X obj 946 218 s \$0-to_gop_gain;
#X obj 291 363 s \$0-to_gop_name;
#X obj 263 162 nbx 3 14 0 1e+37 0 0 adfasdfsadf \$0-to_gop_trackchannels
track_channels: -72 7 1 10 -233017 -1 -1 0 256;
#X obj 603 113 s \$0-to_gop_trackchannels;
#X obj 295 308 s \$0-to_gop_trackchannels;
#N canvas 336 71 450 300 stereo2mono 0;
#X obj 18 15 inlet~ audio stream;
#X obj 19 184 outlet~ audio stream;
#X obj 266 182 outlet~ audio stream2;
#X obj 268 16 inlet~ audio stream;
#X obj 163 15 inlet mono sw;
#X obj 163 86 demux~;
#X connect 0 0 1 0;
#X connect 3 0 5 0;
#X connect 4 0 5 0;
#X connect 5 0 2 0;
#X connect 5 1 1 0;
#X restore 521 464 pd stereo2mono;
#X text 422 136 A;
#X text 422 147 |;
#X text 421 174 |;
#X text 416 161 GOP size;
#X text 421 186 V;
#X text -14 -132 This abstraction is optimised for VisualTracker;
#X obj 946 -73 ../abs/mstorage \$0 1 \$1 number -2;
#X obj 945 -10 ../abs/mstorage \$0 2 \$2 number 0;
#X obj 945 32 ../abs/mstorage \$0 3 \$3 symbol 0 no_sample;
#X obj 945 74 ../abs/mstorage \$0 4 \$4 number 0;
#X obj 946 137 ../abs/mstorage \$0 5 \$5 number 0;
#X obj -1 18 cnv 15 410 97 empty empty empty 5 8 1 12 -1 -1 0;
#X obj 0 19 cnv 15 408 95 empty empty obligatory_code: 5 8 0 10 -262144
-1 0;
#X msg 60 49 95;
#X obj 60 71 s \$0-GOP_SIZE;
#X obj 112 22 r \$0-CREATIONBANG;
#X obj 148 71 s \$0-MODULE_FILENAME;
#X text 292 46 path/filename;
#X obj 946 199 ../abs/mstorage \$0 6 \$6 number 0;
#X obj 947 260 ../abs/mstorage \$0 7 \$7 number 0;
#X obj 947 321 ../abs/mstorage \$0 8 \$8 number 0;
#X text -7 512 Compatibility: VisualTracker 1 BETA 3;
#X msg 148 48 modules/vt_audio_track;
#X obj 0 343 s \$0-MULTI;
#X obj 0 299 r \$0-CREATIONBANG;
#X msg 0 321 1;
#X obj 72 94 ../abs/visualtracker_connector \$0;
#X connect 2 0 11 0;
#X connect 2 0 42 0;
#X connect 2 0 77 0;
#X connect 6 0 10 3;
#X connect 7 0 44 0;
#X connect 10 0 18 0;
#X connect 10 1 18 2;
#X connect 11 0 10 0;
#X connect 11 1 50 0;
#X connect 11 2 14 0;
#X connect 11 3 66 0;
#X connect 12 0 2 0;
#X connect 12 1 42 0;
#X connect 13 0 49 0;
#X connect 13 1 48 0;
#X connect 13 2 67 0;
#X connect 13 4 51 0;
#X connect 13 4 64 0;
#X connect 14 0 7 1;
#X connect 14 0 34 0;
#X connect 18 0 68 0;
#X connect 18 1 68 2;
#X connect 24 0 75 0;
#X connect 25 0 38 0;
#X connect 26 0 37 0;
#X connect 27 0 36 0;
#X connect 28 0 76 0;
#X connect 29 0 22 0;
#X connect 39 0 10 1;
#X connect 40 0 7 0;
#X connect 41 0 12 0;
#X connect 43 0 10 2;
#X connect 45 0 68 1;
#X connect 46 0 18 1;
#X connect 47 0 13 0;
#X connect 52 0 79 0;
#X connect 54 0 78 0;
#X connect 56 0 88 0;
#X connect 58 0 89 0;
#X connect 60 0 35 0;
#X connect 62 0 87 0;
#X connect 68 0 32 0;
#X connect 68 1 33 0;
#X connect 75 0 31 0;
#X connect 76 0 30 0;
#X connect 77 0 2 0;
#X connect 78 0 55 0;
#X connect 79 0 53 0;
#X connect 82 0 83 0;
#X connect 84 0 91 0;
#X connect 84 0 82 0;
#X connect 87 0 63 0;
#X connect 88 0 57 0;
#X connect 89 0 59 0;
#X connect 91 0 85 0;
#X connect 93 0 94 0;
#X connect 94 0 92 0;
#X coords 0 -1 1 1 410 97 2 0 120;
