#N canvas 448 268 709 452 10;
#X text 421 299 More info code.google.com/p/visualtracker;
#X obj 1 121 cnv 15 408 60 empty \$0-background vt_bang 5 8 1 12 -233017
-1 0;
#X obj 188 124 nbx 3 14 0 19 0 0 \$0-from_gop_color \$0-to_gop_color
color: -28 7 1 10 -262144 -1 -1 0 256;
#X obj 360 124 nbx 4 14 1 1e+037 0 0 \$0-from_gop_module_ID \$0-to_gop_module_ID
module_ID: -57 7 1 10 -233017 -1 -1 1 256;
#X obj 387 161 bng 15 250 50 0 \$0-from_gop_bang \$0-to_gop_bang bang:
-28 7 1 10 -262144 -1 -1;
#X symbolatom 4 140 66 0 0 0 - #0-to_gop_name #0-from_gop_name;
#X obj 263 124 nbx 3 14 0 1e+037 0 0 \$0-from_gop_output \$0-to_gop_output
output: -34 7 1 10 -233017 -1 -1 0 256;
#N canvas 596 55 468 308 module_colors 0;
#X obj 134 126 pack f f;
#X obj 134 68 t b f;
#X obj 134 100 f \$0;
#X obj 134 36 inlet;
#X msg 181 166 \; \$1-to_gop_output color \$2 22;
#X msg 134 202 \; \$1-background color \$2 22;
#X msg 102 239 \; \$1-to_gop_module_ID color \$2 22;
#X connect 0 0 4 0;
#X connect 0 0 5 0;
#X connect 0 0 6 0;
#X connect 1 0 2 0;
#X connect 1 1 0 1;
#X connect 2 0 0 0;
#X connect 3 0 1 0;
#X restore 6 -67 pd module_colors;
#X obj 441 -14 r \$0-GET_TRACK;
#X obj 6 -37 r \$0-EXECUTE;
#X obj 277 -94 r \$0-ID;
#X obj 138 -96 r \$0-OUTPUT_TRACK;
#X obj 440 56 r \$0-GET_POSITION;
#X obj 6 -96 r \$0-COLOR_PRESET;
#X obj 440 94 s \$0-SET_POSITION;
#X obj 117 270 s \$0-DATA;
#X obj 441 24 s \$0-SET_TRACK;
#X obj 255 245 s~ \$0-AUDIO1;
#X obj 256 270 s~ \$0-AUDIO2;
#X obj 116 222 s \$0-COLOR;
#X obj 138 -68 s \$0-to_gop_output;
#X obj 277 -67 s \$0-to_gop_module_ID;
#X obj 440 167 s \$0-to_gop_name;
#X obj 256 219 s \$0-NAME;
#X obj 441 192 r \$0-from_gop_color;
#X obj 441 230 s \$0-to_gop_color;
#X obj 116 197 r \$0-from_gop_color;
#X obj 440 125 r \$0-from_gop_name;
#X text 422 -40 // see syntax inside storage abstraction;
#X obj 1 19 cnv 15 410 97 empty empty empty 5 8 1 12 -1 -1 0;
#X obj 2 20 cnv 15 408 95 empty empty obligatory_code: 5 8 0 10 -262144
-1 0;
#X obj 55 70 s \$0-GOP_SIZE;
#X obj 143 24 r \$0-CREATIONBANG;
#X obj 143 70 s \$0-MODULE_FILENAME;
#X text 80 47 in pixels;
#X text 253 24 // use instead loadbang;
#X obj 117 247 r \$0-from_gop_bang;
#X obj 6 -14 s \$0-to_gop_bang;
#X obj 256 196 r \$0-from_gop_name;
#X msg 55 48 60;
#X text 0 302 Compatibility: VisualTracker 1 BETA;
#X obj 83 92 ../abs/visualtracker_connector \$0;
#X obj 441 5 ../abs/mstorage \$0 1 \$1 number -2;
#X obj 440 75 ../abs/mstorage \$0 2 \$2 number 0;
#X obj 440 146 ../abs/mstorage \$0 3 \$3 symbol 0 bang_module;
#X obj 441 211 ../abs/mstorage \$0 4 \$4 number 0;
#X text 244 46 path/filename (no ".pd");
#X msg 143 47 modules/vt_bang;
#X obj 5 242 s \$0-MULTI;
#X obj 5 198 r \$0-CREATIONBANG;
#X msg 5 220 1;
#X connect 8 0 42 0;
#X connect 9 0 37 0;
#X connect 10 0 21 0;
#X connect 11 0 20 0;
#X connect 12 0 43 0;
#X connect 13 0 7 0;
#X connect 24 0 45 0;
#X connect 26 0 19 0;
#X connect 27 0 44 0;
#X connect 32 0 47 0;
#X connect 32 0 39 0;
#X connect 36 0 15 0;
#X connect 38 0 23 0;
#X connect 39 0 31 0;
#X connect 42 0 16 0;
#X connect 43 0 14 0;
#X connect 44 0 22 0;
#X connect 45 0 25 0;
#X connect 47 0 33 0;
#X connect 49 0 50 0;
#X connect 50 0 48 0;
#X coords 0 -1 1 1 410 62 2 0 120;
