#N canvas 178 39 944 699 10;
#X text 657 528 More info code.google.com/p/visualtracker;
#X obj 1 121 cnv 15 408 95 empty \$0-background vt_line 5 8 1 12 -233017
-1 0;
#X obj 184 199 nbx 3 14 1 1e+037 0 0 \$0-from_gop_bars \$0-to_gop_bars
bars: -25 7 1 10 -262144 -1 -1 1 256;
#X obj 316 199 nbx 3 14 1 1e+037 0 0 \$0-from_gop_multi \$0-to_gop_multi
multi: -30 7 1 10 -262144 -1 -1 1 256;
#X obj 188 124 nbx 3 14 0 19 0 0 \$0-from_gop_color \$0-to_gop_color
color: -28 7 1 10 -262144 -1 -1 0 256;
#X obj 360 124 nbx 4 14 1 1e+037 0 0 \$0-from_gop_module_ID \$0-to_gop_module_ID
module_ID: -57 7 1 10 -233017 -1 -1 205 256;
#N canvas 68 375 923 423 hide_numbers 0;
#X obj 41 309 pack f f;
#X obj 41 251 t b f;
#X obj 41 277 f \$0;
#X obj 41 224 line;
#X obj 234 309 pack f f;
#X obj 234 255 t b f;
#X obj 234 283 f \$0;
#X obj 234 228 line;
#X text 21 6 This is just eye candy feature - unused number boxes are
hidden by smoothly moving canvas. Note position of "hiding" canvas
is set hard \, so it has to be changed when changing layout of GOP
module section.;
#X text 343 360 canvas y position;
#X text 232 181 1st number canvas x position;
#X msg 41 197 100 100;
#X msg 103 197 0 100;
#X text 43 175 x size of canvas;
#X text 288 171 always add x size to x canvas position;
#X obj 515 313 pack f f;
#X obj 515 255 t b f;
#X obj 515 281 f \$0;
#X obj 515 228 line;
#X obj 708 313 pack f f;
#X obj 708 259 t b f;
#X obj 708 287 f \$0;
#X obj 708 232 line;
#X msg 41 336 \; \$1-fithide1 vis_size \$2 15;
#X msg 234 334 \; \$1-fithide1 pos \$2 179;
#X msg 515 340 \; \$1-fithide2 vis_size \$2 15;
#X obj 402 67 demux 0 1 2;
#X obj 402 34 t b f;
#X obj 402 8 inlet;
#X msg 708 338 \; \$1-fithide2 pos \$2 198;
#X msg 577 201 0 175;
#X msg 515 201 175 175;
#X msg 234 198 226 100;
#X msg 290 198 326 100;
#X msg 708 203 183 175;
#X msg 770 204 358 175;
#X connect 0 0 23 0;
#X connect 1 0 2 0;
#X connect 1 1 0 1;
#X connect 2 0 0 0;
#X connect 3 0 1 0;
#X connect 4 0 24 0;
#X connect 5 0 6 0;
#X connect 5 1 4 1;
#X connect 6 0 4 0;
#X connect 7 0 5 0;
#X connect 11 0 3 0;
#X connect 12 0 3 0;
#X connect 15 0 25 0;
#X connect 16 0 17 0;
#X connect 16 1 15 1;
#X connect 17 0 15 0;
#X connect 18 0 16 0;
#X connect 19 0 29 0;
#X connect 20 0 21 0;
#X connect 20 1 19 1;
#X connect 21 0 19 0;
#X connect 22 0 20 0;
#X connect 26 0 11 0;
#X connect 26 0 32 0;
#X connect 26 0 31 0;
#X connect 26 0 34 0;
#X connect 26 1 12 0;
#X connect 26 1 33 0;
#X connect 26 1 31 0;
#X connect 26 1 34 0;
#X connect 26 2 30 0;
#X connect 26 2 35 0;
#X connect 26 2 11 0;
#X connect 26 2 32 0;
#X connect 27 0 26 0;
#X connect 27 1 26 1;
#X connect 28 0 27 0;
#X connect 30 0 18 0;
#X connect 31 0 18 0;
#X connect 32 0 7 0;
#X connect 33 0 7 0;
#X connect 34 0 22 0;
#X connect 35 0 22 0;
#X restore 1 295 pd hide_numbers;
#X obj 388 199 bng 15 250 50 0 \$0-from_gop_exe \$0-to_gop_exe exe:
-22 7 1 10 -262144 -1 -1;
#X obj 226 199 nbx 5 14 1 1e+037 0 0 \$0-from_gop_percentage \$0-to_gop_percentage
empty -7 7 1 10 -233017 -1 -1 100 256;
#N canvas 818 109 411 255 percentage 0;
#X obj 183 -12 * 100;
#X obj 183 18 outlet sample percentage;
#X obj 183 -122 inlet original duration;
#X obj 40 -124 inlet current duration;
#X obj 183 -39 /;
#X obj 183 -70 t b f;
#X connect 0 0 1 0;
#X connect 2 0 5 0;
#X connect 3 0 4 0;
#X connect 4 0 0 0;
#X connect 5 0 4 0;
#X connect 5 1 4 1;
#X restore 137 371 pd percentage;
#X symbolatom 4 141 66 0 0 0 - #0-to_gop_name #0-from_gop_name;
#X obj 263 124 nbx 3 14 0 1e+037 0 0 \$0-from_gop_output \$0-to_gop_output
output: -34 7 1 10 -233017 -1 -1 0 256;
#X obj 136 162 vradio 17 1 0 3 \$0-from_gop_fit \$0-to_gop_fit fit:
-15 7 1 10 -262144 -1 -1 0;
#X obj 226 180 nbx 3 14 1 1e+037 0 0 \$0-from_gop_original_bpm \$0-to_gop_original_bpm
original_bpm: -67 7 1 10 -262144 -1 -1 100 256;
#X obj 263 180 nbx 5 14 1 1e+037 0 0 \$0-from_gop_percentage \$0-to_gop_percentage
empty -7 7 1 10 -233017 -1 -1 100 256;
#X text 157 161 no;
#X text 312 180 %;
#X obj 226 179 cnv 1 100 15 empty \$0-fithide1 empty 20 12 0 14 -233017
-1 0;
#X text 274 197 %;
#X obj 183 198 cnv 1 175 15 empty \$0-fithide2 empty 20 12 0 14 -233017
-1 0;
#N canvas 596 55 468 492 module_colors 0;
#X obj 134 126 pack f f;
#X obj 134 68 t b f;
#X obj 134 100 f \$0;
#X obj 134 36 inlet;
#X msg 167 206 \; \$1-fithide1 color \$2 22;
#X msg 164 245 \; \$1-fithide2 color \$2 22;
#X msg 181 166 \; \$1-to_gop_output color \$2 22;
#X msg 134 283 \; \$1-background color \$2 22;
#X msg 102 320 \; \$1-to_gop_module_ID color \$2 22;
#X msg 67 357 \; \$1-to_gop_percentage color \$2 22;
#X connect 0 0 4 0;
#X connect 0 0 5 0;
#X connect 0 0 6 0;
#X connect 0 0 7 0;
#X connect 0 0 8 0;
#X connect 0 0 9 0;
#X connect 1 0 2 0;
#X connect 1 1 0 1;
#X connect 2 0 0 0;
#X connect 3 0 1 0;
#X restore 6 -67 pd module_colors;
#X obj 696 -91 r \$0-GET_TRACK;
#X obj 6 -37 r \$0-EXECUTE;
#X obj 277 -94 r \$0-ID;
#X obj 138 -96 r \$0-OUTPUT_TRACK;
#X obj 695 -29 r \$0-GET_POSITION;
#X obj 6 -96 r \$0-COLOR_PRESET;
#X obj 695 9 s \$0-SET_POSITION;
#X obj 507 184 s \$0-DATA;
#X obj -1 404 s \$0-BARS;
#X obj 696 -53 s \$0-SET_TRACK;
#X obj 294 430 s~ \$0-AUDIO1;
#X obj 295 455 s~ \$0-AUDIO2;
#X obj 280 319 s \$0-ORIG_DURATION;
#X obj 0 455 s \$0-FIT;
#X obj 138 295 s \$0-MULTI;
#X obj 0 348 s \$0-COLOR;
#X obj 138 -66 s \$0-to_gop_output;
#X obj 277 -67 s \$0-to_gop_module_ID;
#X obj 137 325 r \$0-DURATION;
#X obj 0 432 r \$0-from_gop_fit;
#X obj 695 72 s \$0-to_gop_name;
#X obj 137 398 s \$0-to_gop_percentage;
#X obj 137 447 s \$0-NAME;
#X obj 1 268 r \$0-from_gop_fit;
#X obj 138 270 r \$0-from_gop_multi;
#X obj -1 380 r \$0-from_gop_bars;
#X obj 696 156 r \$0-from_gop_color;
#X obj 696 194 s \$0-to_gop_color;
#X obj 695 95 r \$0-from_gop_fit;
#X obj 695 133 s \$0-to_gop_fit;
#X obj 696 278 r \$0-from_gop_bars;
#X obj 696 316 s \$0-to_gop_bars;
#X obj 696 217 r \$0-from_gop_multi;
#X obj 696 255 s \$0-to_gop_multi;
#X obj 697 339 r \$0-from_gop_original_bpm;
#X obj 697 378 s \$0-to_gop_original_bpm;
#X obj 0 323 r \$0-from_gop_color;
#X obj 695 30 r \$0-from_gop_name;
#X text 677 -117 // see syntax inside storage abstraction;
#X obj 1 19 cnv 15 410 97 empty empty empty 5 8 1 12 -1 -1 0;
#X obj 2 20 cnv 15 408 95 empty empty obligatory_code: 5 8 0 10 -262144
-1 0;
#X msg 55 48 95;
#X obj 55 70 s \$0-GOP_SIZE;
#X obj 143 24 r \$0-CREATIONBANG;
#X obj 143 70 s \$0-MODULE_FILENAME;
#X text 80 47 in pixels;
#X text 253 24 // use instead loadbang;
#X text 3 219 note some controls are hidden by cover canvases;
#X text 292 220 > click "fit radio";
#X obj 487 132 line;
#X msg 530 3 stop;
#X obj 530 -18 r vt_seq_stop;
#X obj 7 162 hsl 108 50 0 1 0 0 asdfwsefhwethj \$0-to_gop_slider 0
30 25 0 10 -262144 -1 -1 0 1;
#X obj 487 207 s \$0-to_gop_slider;
#X obj 487 79 pack;
#X msg 487 102 \$1 \$2;
#X obj 508 53 r \$0-DURATION;
#X obj 487 5 t f b;
#X msg 514 29 0;
#X obj 361 163 nbx 4 14 0 100000 0 0 \$0-from_gop_target \$0-to_gop_target
target: -32 7 1 10 -262144 -1 -1 10 256;
#X obj 263 162 nbx 3 14 1 1e+037 0 0 \$0-from_gop_orig_duration \$0-to_gop_orig_duration
original_duration: -85 7 1 10 -262144 -1 -1 5 256;
#X msg 487 -17 1;
#X obj 507 158 *;
#X text 295 161 [sec];
#X obj 522 133 r \$0-from_gop_target;
#X obj 280 294 * 1000;
#X obj 137 424 r \$0-from_gop_name;
#X obj 696 401 r \$0-from_gop_target;
#X obj 696 440 s \$0-to_gop_target;
#X obj 6 -14 s \$0-to_gop_exe;
#X obj 487 -39 r \$0-from_gop_exe;
#X obj 280 270 r \$0-from_gop_orig_duration;
#X obj 696 464 r \$0-from_gop_orig_duration;
#X obj 696 503 s \$0-to_gop_orig_duration;
#X obj 280 377 s \$0-ORIG_BPM;
#X obj 280 353 r \$0-from_gop_original_bpm;
#X obj 155 347 r \$0-ORIG_DURATION;
#X obj 485 344 f \$0;
#X obj 485 370 pack f s;
#X obj 485 314 t b a;
#X msg 485 395 \; \$1-to_gop_slider label \$2;
#X obj 485 292 l2s;
#X obj 513 247 r \$0-CREATIONBANG;
#X msg 513 269 0;
#X text 3 527 Compatibility: VisualTracker 1 BETA;
#X obj 83 92 ../abs/visualtracker_connector \$0;
#X obj 696 -72 ../abs/mstorage \$0 1 \$1 number -2;
#X obj 695 -10 ../abs/mstorage \$0 2 \$2 number 0;
#X obj 695 51 ../abs/mstorage \$0 3 \$3 symbol 0 line;
#X obj 695 114 ../abs/mstorage \$0 4 \$4 number 0;
#X obj 696 175 ../abs/mstorage \$0 5 \$5 number 0;
#X obj 696 236 ../abs/mstorage \$0 6 \$6 number 1;
#X obj 696 297 ../abs/mstorage \$0 7 \$7 number 1;
#X obj 697 358 ../abs/mstorage \$0 8 \$8 number 100;
#X obj 696 420 ../abs/mstorage \$0 9 \$9 number 10;
#X obj 696 483 ../abs/mstorage \$0 10 \$10 number 5;
#X msg 143 47 modules/vt_line;
#X text 244 45 path/filename (no ".pd");
#X connect 9 0 42 0;
#X connect 21 0 107 0;
#X connect 22 0 90 0;
#X connect 23 0 38 0;
#X connect 24 0 37 0;
#X connect 25 0 108 0;
#X connect 26 0 20 0;
#X connect 39 0 9 0;
#X connect 40 0 34 0;
#X connect 44 0 6 0;
#X connect 45 0 35 0;
#X connect 46 0 29 0;
#X connect 47 0 111 0;
#X connect 49 0 110 0;
#X connect 51 0 113 0;
#X connect 53 0 112 0;
#X connect 55 0 114 0;
#X connect 57 0 36 0;
#X connect 58 0 109 0;
#X connect 62 0 63 0;
#X connect 64 0 117 0;
#X connect 64 0 62 0;
#X connect 70 0 74 0;
#X connect 70 0 83 0;
#X connect 71 0 70 0;
#X connect 71 0 79 0;
#X connect 72 0 71 0;
#X connect 75 0 76 0;
#X connect 76 0 70 0;
#X connect 77 0 75 1;
#X connect 78 0 75 0;
#X connect 78 1 79 0;
#X connect 79 0 70 0;
#X connect 82 0 78 0;
#X connect 83 0 28 0;
#X connect 83 0 102 0;
#X connect 85 0 83 1;
#X connect 86 0 33 0;
#X connect 87 0 43 0;
#X connect 88 0 115 0;
#X connect 91 0 82 0;
#X connect 92 0 86 0;
#X connect 93 0 116 0;
#X connect 96 0 95 0;
#X connect 97 0 9 1;
#X connect 98 0 99 0;
#X connect 99 0 101 0;
#X connect 100 0 98 0;
#X connect 100 1 99 1;
#X connect 102 0 100 0;
#X connect 103 0 104 0;
#X connect 104 0 102 0;
#X connect 107 0 30 0;
#X connect 108 0 27 0;
#X connect 109 0 41 0;
#X connect 110 0 50 0;
#X connect 111 0 48 0;
#X connect 112 0 54 0;
#X connect 113 0 52 0;
#X connect 114 0 56 0;
#X connect 115 0 89 0;
#X connect 116 0 94 0;
#X connect 117 0 65 0;
#X coords 0 -1 1 1 410 97 2 0 120;
