#N canvas 390 187 950 633 10;
#X text 635 465 More info code.google.com/p/visualtracker;
#X obj 1 121 cnv 15 408 95 empty \$0-background vt_toggle 5 8 1 12
-233017 -1 0;
#X obj 184 199 nbx 3 14 1 1e+37 0 0 \$0-from_gop_bars \$0-to_gop_bars
bars: -25 7 1 10 -262144 -1 -1 1 256;
#X obj 188 124 nbx 3 14 0 19 0 0 \$0-from_gop_color \$0-to_gop_color
color: -28 7 1 10 -262144 -1 -1 0 256;
#X obj 360 124 nbx 4 14 1 1e+37 0 0 \$0-from_gop_module_ID \$0-to_gop_module_ID
module_ID: -57 7 1 10 -233017 -1 -1 6 256;
#N canvas 68 375 923 423 hide_numbers 0;
#X obj 41 309 pack f f;
#X obj 41 251 t b f;
#X obj 41 277 f \$0;
#X obj 41 224 line;
#X obj 234 309 pack f f;
#X obj 234 255 t b f;
#X obj 234 283 f \$0;
#X obj 234 228 line;
#X text 21 6 This is just eye candy feature - unused number boxes are
hidden by smoothly moving canvas. Note position of "hiding" canvas
is set hard \, so it has to be changed when changing layout of GOP
module section.;
#X text 343 360 canvas y position;
#X text 232 181 1st number canvas x position;
#X msg 41 197 100 100;
#X msg 103 197 0 100;
#X text 43 175 x size of canvas;
#X text 288 171 always add x size to x canvas position;
#X obj 515 313 pack f f;
#X obj 515 255 t b f;
#X obj 515 281 f \$0;
#X obj 515 228 line;
#X obj 708 313 pack f f;
#X obj 708 259 t b f;
#X obj 708 287 f \$0;
#X obj 708 232 line;
#X msg 41 336 \; \$1-fithide1 vis_size \$2 15;
#X msg 234 334 \; \$1-fithide1 pos \$2 179;
#X msg 515 340 \; \$1-fithide2 vis_size \$2 15;
#X obj 402 67 demux 0 1 2;
#X obj 402 34 t b f;
#X obj 402 8 inlet;
#X msg 708 338 \; \$1-fithide2 pos \$2 198;
#X msg 577 201 0 175;
#X msg 515 201 175 175;
#X msg 234 198 226 100;
#X msg 290 198 326 100;
#X msg 708 203 183 175;
#X msg 770 204 358 175;
#X connect 0 0 23 0;
#X connect 1 0 2 0;
#X connect 1 1 0 1;
#X connect 2 0 0 0;
#X connect 3 0 1 0;
#X connect 4 0 24 0;
#X connect 5 0 6 0;
#X connect 5 1 4 1;
#X connect 6 0 4 0;
#X connect 7 0 5 0;
#X connect 11 0 3 0;
#X connect 12 0 3 0;
#X connect 15 0 25 0;
#X connect 16 0 17 0;
#X connect 16 1 15 1;
#X connect 17 0 15 0;
#X connect 18 0 16 0;
#X connect 19 0 29 0;
#X connect 20 0 21 0;
#X connect 20 1 19 1;
#X connect 21 0 19 0;
#X connect 22 0 20 0;
#X connect 26 0 11 0;
#X connect 26 0 32 0;
#X connect 26 0 31 0;
#X connect 26 0 34 0;
#X connect 26 1 12 0;
#X connect 26 1 33 0;
#X connect 26 1 31 0;
#X connect 26 1 34 0;
#X connect 26 2 30 0;
#X connect 26 2 35 0;
#X connect 26 2 11 0;
#X connect 26 2 32 0;
#X connect 27 0 26 0;
#X connect 27 1 26 1;
#X connect 28 0 27 0;
#X connect 30 0 18 0;
#X connect 31 0 18 0;
#X connect 32 0 7 0;
#X connect 33 0 7 0;
#X connect 34 0 22 0;
#X connect 35 0 22 0;
#X restore 1 282 pd hide_numbers;
#X obj 524 98 r vt_seq_stop;
#X obj 226 199 nbx 5 14 1 1e+37 0 0 \$0-from_gop_percentage \$0-to_gop_percentage
empty -7 7 1 10 -233017 -1 -1 100 256;
#N canvas 818 109 411 255 percentage 0;
#X obj 183 -12 * 100;
#X obj 183 18 outlet sample percentage;
#X obj 183 -122 inlet original duration;
#X obj 40 -124 inlet current duration;
#X obj 183 -39 /;
#X obj 183 -70 t b f;
#X connect 0 0 1 0;
#X connect 2 0 5 0;
#X connect 3 0 4 0;
#X connect 4 0 0 0;
#X connect 5 0 4 0;
#X connect 5 1 4 1;
#X restore 137 347 pd percentage;
#X symbolatom 4 140 66 0 0 0 - #0-to_gop_name #0-from_gop_name;
#X obj 263 124 nbx 3 14 0 1e+37 0 0 \$0-from_gop_output \$0-to_gop_output
output: -34 7 1 10 -233017 -1 -1 0 256;
#X obj 136 162 vradio 17 1 0 3 \$0-from_gop_fit \$0-to_gop_fit fit:
-15 7 1 10 -262144 -1 -1 0;
#X obj 226 180 nbx 3 14 1 1e+37 0 0 \$0-from_gop_original_bpm \$0-to_gop_original_bpm
original_bpm: -67 7 1 10 -262144 -1 -1 100 256;
#X obj 263 180 nbx 5 14 1 1e+37 0 0 \$0-from_gop_percentage \$0-to_gop_percentage
empty -7 7 1 10 -233017 -1 -1 100 256;
#X text 157 161 no;
#X text 312 180 %;
#X obj 226 179 cnv 1 100 15 empty \$0-fithide1 empty 20 12 0 14 -233017
-1 0;
#X text 274 197 %;
#X obj 183 198 cnv 1 175 15 empty \$0-fithide2 empty 20 12 0 14 -233017
-1 0;
#N canvas 596 55 468 492 module_colors 0;
#X obj 134 126 pack f f;
#X obj 134 68 t b f;
#X obj 134 100 f \$0;
#X obj 134 36 inlet;
#X msg 167 206 \; \$1-fithide1 color \$2 22;
#X msg 164 245 \; \$1-fithide2 color \$2 22;
#X msg 181 166 \; \$1-to_gop_output color \$2 22;
#X msg 134 283 \; \$1-background color \$2 22;
#X msg 102 320 \; \$1-to_gop_module_ID color \$2 22;
#X msg 67 357 \; \$1-to_gop_percentage color \$2 22;
#X connect 0 0 4 0;
#X connect 0 0 5 0;
#X connect 0 0 6 0;
#X connect 0 0 7 0;
#X connect 0 0 8 0;
#X connect 0 0 9 0;
#X connect 1 0 2 0;
#X connect 1 1 0 1;
#X connect 2 0 0 0;
#X connect 3 0 1 0;
#X restore 6 -67 pd module_colors;
#X obj 665 -89 r \$0-GET_TRACK;
#X obj 6 -37 r \$0-EXECUTE;
#X obj 277 -94 r \$0-ID;
#X obj 138 -96 r \$0-OUTPUT_TRACK;
#X obj 664 -19 r \$0-GET_POSITION;
#X obj 6 -96 r \$0-COLOR_PRESET;
#X obj 664 19 s \$0-SET_POSITION;
#X obj 293 363 s \$0-DATA;
#X obj -1 391 s \$0-BARS;
#X obj 665 -51 s \$0-SET_TRACK;
#X obj 292 441 s~ \$0-AUDIO1;
#X obj 377 440 s~ \$0-AUDIO2;
#X obj 294 313 s \$0-ORIG_DURATION;
#X obj 0 442 s \$0-FIT;
#X obj 0 335 s \$0-COLOR;
#X obj 138 -66 s \$0-to_gop_output;
#X obj 277 -67 s \$0-to_gop_module_ID;
#X obj 137 303 r \$0-DURATION;
#X obj 0 419 r \$0-from_gop_fit;
#X obj 664 92 s \$0-to_gop_name;
#X obj 137 372 s \$0-to_gop_percentage;
#X obj 139 278 s \$0-NAME;
#X obj 1 255 r \$0-from_gop_fit;
#X obj -1 367 r \$0-from_gop_bars;
#X obj 665 193 r \$0-from_gop_color;
#X obj 665 231 s \$0-to_gop_color;
#X obj 664 123 r \$0-from_gop_fit;
#X obj 664 161 s \$0-to_gop_fit;
#X obj 665 259 r \$0-from_gop_bars;
#X obj 665 297 s \$0-to_gop_bars;
#X obj 666 323 r \$0-from_gop_original_bpm;
#X obj 666 362 s \$0-to_gop_original_bpm;
#X obj 0 310 r \$0-from_gop_color;
#X obj 664 50 r \$0-from_gop_name;
#X text 646 -115 // see syntax inside storage abstraction;
#X obj 1 19 cnv 15 410 97 empty empty empty 5 8 1 12 -1 -1 0;
#X obj 2 20 cnv 15 408 95 empty empty obligatory_code: 5 8 0 10 -262144
-1 0;
#X msg 55 48 95;
#X obj 55 70 s \$0-GOP_SIZE;
#X obj 143 24 r \$0-CREATIONBANG;
#X obj 143 70 s \$0-MODULE_FILENAME;
#X text 80 47 in pixels;
#X text 253 24 // use instead loadbang;
#X obj 6 162 tgl 50 0 \$0-from_gop_toggle \$0-to_gop_toggle empty 17
7 0 10 -262144 -1 -1 0 1;
#X obj 6 -14 s \$0-to_gop_toggle;
#X obj 278 162 nbx 3 14 1 1e+37 0 0 \$0-from_gop_original_duration
\$0-to_gop_original_duration original_duration: -85 7 1 10 -262144
-1 -1 5 256;
#X obj 667 388 r \$0-from_gop_original_duration;
#X obj 667 427 s \$0-to_gop_original_duration;
#X text 312 160 [sec];
#X obj 480 99 delay;
#X obj 507 73 r \$0-DURATION;
#X obj 453 1 r \$0-from_gop_toggle;
#X obj 139 255 r \$0-from_gop_name;
#X obj 480 150 s \$0-to_gop_toggle;
#X msg 480 126 0;
#X obj 294 261 r \$0-from_gop_original_duration;
#X obj 293 339 r \$0-from_gop_toggle;
#X obj 294 288 * 1000;
#X obj 137 444 s \$0-MULTI;
#X msg 137 420 1;
#X obj 137 396 r \$0-CREATIONBANG;
#X obj 453 25 sel 0;
#X obj 480 50 bang;
#X obj 158 324 r \$0-ORIG_DURATION;
#X obj 293 413 s \$0-ORIG_BPM;
#X obj 293 388 r \$0-from_gop_original_bpm;
#X text -2 467 Compatibility: VisualTracker 1 BETA 1;
#X obj 665 -70 ../abs/mstorage \$0 1 \$1 number -2;
#X obj 664 0 ../abs/mstorage \$0 2 \$2 number 0;
#X obj 664 142 ../abs/mstorage \$0 4 \$4 number 0;
#X obj 665 212 ../abs/mstorage \$0 5 \$5 number 0;
#X obj 665 278 ../abs/mstorage \$0 6 \$6 number 1;
#X obj 666 342 ../abs/mstorage \$0 7 \$7 number 100;
#X obj 667 407 ../abs/mstorage \$0 7 \$7 number 5;
#X msg 143 47 modules/vt_toggle;
#X text 255 46 path/filename (no ".pd");
#X obj 541 -41 print track from storage;
#X obj 462 -77 print track to storage;
#X obj 664 71 ../abs/mstorage \$0 3 \$3 symbol 0 toggle;
#X obj 83 92 ../abs/visualtracker_connector \$0;
#X connect 6 0 74 0;
#X connect 8 0 40 0;
#X connect 20 0 87 0;
#X connect 20 0 97 0;
#X connect 21 0 64 0;
#X connect 22 0 36 0;
#X connect 23 0 35 0;
#X connect 24 0 88 0;
#X connect 25 0 19 0;
#X connect 37 0 8 0;
#X connect 38 0 33 0;
#X connect 42 0 5 0;
#X connect 43 0 28 0;
#X connect 44 0 90 0;
#X connect 46 0 89 0;
#X connect 48 0 91 0;
#X connect 50 0 92 0;
#X connect 52 0 34 0;
#X connect 53 0 98 0;
#X connect 57 0 58 0;
#X connect 59 0 94 0;
#X connect 59 0 57 0;
#X connect 66 0 93 0;
#X connect 69 0 74 0;
#X connect 70 0 69 1;
#X connect 71 0 81 0;
#X connect 72 0 41 0;
#X connect 74 0 73 0;
#X connect 75 0 77 0;
#X connect 76 0 27 0;
#X connect 77 0 32 0;
#X connect 79 0 78 0;
#X connect 80 0 79 0;
#X connect 81 1 82 0;
#X connect 82 0 69 0;
#X connect 83 0 8 1;
#X connect 85 0 84 0;
#X connect 87 0 29 0;
#X connect 87 0 96 0;
#X connect 88 0 26 0;
#X connect 89 0 47 0;
#X connect 90 0 45 0;
#X connect 91 0 49 0;
#X connect 92 0 51 0;
#X connect 93 0 67 0;
#X connect 94 0 60 0;
#X connect 98 0 39 0;
#X coords 0 -1 1 1 410 97 2 0 120;
