#N canvas 185 60 549 598 10;
#X obj 127 258 VisualTracker;
#X msg 223 411 MUTE;
#X obj 194 383 loadbang;
#N canvas 330 123 532 420 audio_output 0;
#X obj 337 142 t b;
#X obj 337 92 f;
#X obj 337 42 inlet;
#X text 343 11 mute;
#X obj 337 167 f;
#X msg 425 162 0;
#X msg 337 67 bang;
#X obj 337 117 moses 1;
#X obj 396 92 moses 1;
#X obj 125 148 dbtorms;
#X obj 396 67 r master-lvl;
#X obj 125 42 r master-lvl;
#X obj 337 192 s master-lvl;
#X obj 20 45 inlet~;
#X obj 241 41 inlet;
#X text 236 20 level;
#X obj 241 105 s master-lvl;
#X msg 138 65 set \$1;
#X obj 138 90 outlet;
#X msg 256 65 \; pd dsp 1;
#X obj 125 198 line~;
#X obj 21 249 *~;
#X obj 21 297 dac~;
#X obj 125 173 pack 0 50;
#X text 138 114 show level;
#X obj 425 137 t b;
#X obj 20 71 hip~ 1;
#X obj 67 70 hip~ 1;
#X obj 67 250 *~;
#X text 20 22 audioL;
#X text 68 21 audioR;
#X obj 68 44 inlet~;
#X connect 0 0 4 0;
#X connect 1 0 7 0;
#X connect 2 0 6 0;
#X connect 4 0 12 0;
#X connect 5 0 12 0;
#X connect 6 0 1 0;
#X connect 7 0 0 0;
#X connect 7 1 25 0;
#X connect 8 1 4 1;
#X connect 9 0 23 0;
#X connect 10 0 1 1;
#X connect 10 0 8 0;
#X connect 11 0 9 0;
#X connect 11 0 17 0;
#X connect 13 0 26 0;
#X connect 14 0 16 0;
#X connect 14 0 19 0;
#X connect 17 0 18 0;
#X connect 20 0 21 1;
#X connect 20 0 28 1;
#X connect 21 0 22 0;
#X connect 23 0 20 0;
#X connect 25 0 5 0;
#X connect 26 0 21 0;
#X connect 27 0 28 0;
#X connect 28 0 22 1;
#X connect 31 0 27 0;
#X restore 136 437 pd audio_output;
#X obj 18 18 cnv 15 90 550 empty empty empty 20 12 0 14 -233017 -66577
0;
#X text 114 105 This object does not accept arguments of any type.
;
#X text 46 63 INLETS:;
#X text 28 106 ARGUMENTS:;
#X text 39 136 OUTLETS:;
#X text 30 191 EXAMPLES:;
#X text 31 518 SEE ALSO:;
#X text 17 29 [VisualTracker];
#X text 115 28 Modular system for sequencing events on timeline;
#X text 115 193 Audio outputs must be connected to [dac~] to perform
sounds;
#X text 119 518 Complete documentation and user manual at;
#X text 119 534 http://code.google.com/p/visualtracker;
#X obj 127 229 tgl 15 0 empty empty empty 17 7 0 10 -262144 -1 -1 0
1;
#X text 146 227 Start / stop sequencer;
#X text 120 149 2-13 : audio output 1-12;
#X text 114 164 14-25 : data output 1-12;
#X floatatom 127 461 5 0 0 0 - - -;
#X msg 194 411 85;
#X text 114 62 LEFT: PLAY/STOP toggle;
#X text 114 78 RIGHT: preset direct load message / existing storage
file;
#X msg 370 229 storage/automatic_save.tmp;
#X obj 166 462 sel 0;
#X text 204 461 // avoid bang on stop;
#X obj 193 487 bng 15 250 50 0 empty empty empty 17 7 0 10 -262144
-1 -1;
#X text 138 135 1 : master tempo (beats/quarters);
#X connect 0 0 20 0;
#X connect 0 1 3 0;
#X connect 0 2 3 1;
#X connect 1 0 3 3;
#X connect 2 0 21 0;
#X connect 16 0 0 0;
#X connect 20 0 25 0;
#X connect 21 0 3 2;
#X connect 24 0 0 1;
#X connect 25 1 27 0;
