#N canvas 381 147 771 486 10;
#X obj 100 100 ../abs/vt_vsl;
#X obj 242 273 l2s -;
#X obj 242 -44 s2l -;
#X obj 242 -66 symbol;
#X obj 18 217 bang;
#X obj 144 274 list prepend 0;
#X obj 242 -21 unpack f f f f f f f f f f f f f f f f f f f f f f f
f f f f f f f f f;
#X obj 242 234 pack f f f f f f f f f f f f f f f f f f f f f f f f
f f f f f f f f;
#X obj 18 196 r vt_rebuild_sequence;
#X obj 144 299 s \$0_sequence;
#X obj 242 -102 inlet from_storage;
#X obj 242 299 outlet to_storage;
#X obj 2 -101 inlet sequence;
#X obj 2 299 outlet seqencer_output;
#N canvas 0 0 450 300 table 0;
#N canvas 0 0 450 300 (subpatch) 0;
#X array \$0_sequence 32 float 2;
#X coords 0 127 32 0 70 50 1;
#X restore 159 99 graph;
#X restore 18 243 pd table;
#X obj 2 269 tabread \$0_sequence;
#X obj 106 -22 inlet toggle_color;
#X obj 673 -22 inlet range;
#X obj 120 100 ../abs/vt_vsl;
#X obj 140 100 ../abs/vt_vsl;
#X obj 160 100 ../abs/vt_vsl;
#X obj 180 100 ../abs/vt_vsl;
#X obj 200 100 ../abs/vt_vsl;
#X obj 220 100 ../abs/vt_vsl;
#X obj 240 100 ../abs/vt_vsl;
#X obj 260 100 ../abs/vt_vsl;
#X obj 280 100 ../abs/vt_vsl;
#X obj 300 100 ../abs/vt_vsl;
#X obj 320 100 ../abs/vt_vsl;
#X obj 340 100 ../abs/vt_vsl;
#X obj 360 100 ../abs/vt_vsl;
#X obj 380 100 ../abs/vt_vsl;
#X obj 400 100 ../abs/vt_vsl;
#X obj 420 100 ../abs/vt_vsl;
#X obj 440 100 ../abs/vt_vsl;
#X obj 460 100 ../abs/vt_vsl;
#X obj 480 100 ../abs/vt_vsl;
#X obj 500 100 ../abs/vt_vsl;
#X obj 520 100 ../abs/vt_vsl;
#X obj 540 100 ../abs/vt_vsl;
#X obj 560 100 ../abs/vt_vsl;
#X obj 580 100 ../abs/vt_vsl;
#X obj 600 100 ../abs/vt_vsl;
#X obj 620 100 ../abs/vt_vsl;
#X obj 640 100 ../abs/vt_vsl;
#X obj 660 100 ../abs/vt_vsl;
#X obj 680 100 ../abs/vt_vsl;
#X obj 700 100 ../abs/vt_vsl;
#X obj 720 100 ../abs/vt_vsl;
#X connect 0 0 7 0;
#X connect 1 0 11 0;
#X connect 2 0 6 0;
#X connect 3 0 2 0;
#X connect 4 0 7 0;
#X connect 5 0 9 0;
#X connect 6 0 0 0;
#X connect 6 1 18 0;
#X connect 6 2 19 0;
#X connect 6 3 20 0;
#X connect 6 4 21 0;
#X connect 6 5 22 0;
#X connect 6 6 23 0;
#X connect 6 7 24 0;
#X connect 6 8 25 0;
#X connect 6 9 26 0;
#X connect 6 10 27 0;
#X connect 6 11 28 0;
#X connect 6 12 29 0;
#X connect 6 13 30 0;
#X connect 6 14 31 0;
#X connect 6 15 32 0;
#X connect 6 16 33 0;
#X connect 6 17 34 0;
#X connect 6 18 35 0;
#X connect 6 19 36 0;
#X connect 6 20 37 0;
#X connect 6 21 38 0;
#X connect 6 22 39 0;
#X connect 6 23 40 0;
#X connect 6 24 41 0;
#X connect 6 25 42 0;
#X connect 6 26 43 0;
#X connect 6 27 44 0;
#X connect 6 28 45 0;
#X connect 6 29 46 0;
#X connect 6 30 47 0;
#X connect 6 31 48 0;
#X connect 7 0 1 0;
#X connect 7 0 5 0;
#X connect 8 0 4 0;
#X connect 10 0 3 0;
#X connect 12 0 15 0;
#X connect 15 0 13 0;
#X connect 16 0 0 1;
#X connect 16 0 18 1;
#X connect 16 0 19 1;
#X connect 16 0 20 1;
#X connect 16 0 21 1;
#X connect 16 0 22 1;
#X connect 16 0 23 1;
#X connect 16 0 24 1;
#X connect 16 0 25 1;
#X connect 16 0 26 1;
#X connect 16 0 27 1;
#X connect 16 0 28 1;
#X connect 16 0 29 1;
#X connect 16 0 30 1;
#X connect 16 0 31 1;
#X connect 16 0 32 1;
#X connect 16 0 33 1;
#X connect 16 0 34 1;
#X connect 16 0 35 1;
#X connect 16 0 36 1;
#X connect 16 0 37 1;
#X connect 16 0 38 1;
#X connect 16 0 39 1;
#X connect 16 0 40 1;
#X connect 16 0 41 1;
#X connect 16 0 42 1;
#X connect 16 0 43 1;
#X connect 16 0 44 1;
#X connect 16 0 45 1;
#X connect 16 0 46 1;
#X connect 16 0 47 1;
#X connect 16 0 48 1;
#X connect 17 0 0 2;
#X connect 17 0 18 2;
#X connect 17 0 19 2;
#X connect 17 0 20 2;
#X connect 17 0 21 2;
#X connect 17 0 22 2;
#X connect 17 0 23 2;
#X connect 17 0 24 2;
#X connect 17 0 25 2;
#X connect 17 0 26 2;
#X connect 17 0 27 2;
#X connect 17 0 28 2;
#X connect 17 0 29 2;
#X connect 17 0 30 2;
#X connect 17 0 31 2;
#X connect 17 0 32 2;
#X connect 17 0 33 2;
#X connect 17 0 34 2;
#X connect 17 0 35 2;
#X connect 17 0 36 2;
#X connect 17 0 37 2;
#X connect 17 0 38 2;
#X connect 17 0 39 2;
#X connect 17 0 40 2;
#X connect 17 0 41 2;
#X connect 17 0 42 2;
#X connect 17 0 43 2;
#X connect 17 0 44 2;
#X connect 17 0 45 2;
#X connect 17 0 46 2;
#X connect 17 0 47 2;
#X connect 17 0 48 2;
#X connect 18 0 7 1;
#X connect 19 0 7 2;
#X connect 20 0 7 3;
#X connect 21 0 7 4;
#X connect 22 0 7 5;
#X connect 23 0 7 6;
#X connect 24 0 7 7;
#X connect 25 0 7 8;
#X connect 26 0 7 9;
#X connect 27 0 7 10;
#X connect 28 0 7 11;
#X connect 29 0 7 12;
#X connect 30 0 7 13;
#X connect 31 0 7 14;
#X connect 32 0 7 15;
#X connect 33 0 7 16;
#X connect 34 0 7 17;
#X connect 35 0 7 18;
#X connect 36 0 7 19;
#X connect 37 0 7 20;
#X connect 38 0 7 21;
#X connect 39 0 7 22;
#X connect 40 0 7 23;
#X connect 41 0 7 24;
#X connect 42 0 7 25;
#X connect 43 0 7 26;
#X connect 44 0 7 27;
#X connect 45 0 7 28;
#X connect 46 0 7 29;
#X connect 47 0 7 30;
#X connect 48 0 7 31;
#X coords 0 -1 1 1 740 65 2 0 100;
